<svg width="45" height="43" fill="none" xmlns="http://www.w3.org/2000/svg"><path d="M6.375 8.01c-2.044 1.073-3.607 2.632-4.753 4.765-2.31 4.315-1.93 9.569.983 13.56 1.147 1.566 2.429 2.69 4.113 3.609 3.08 1.675 23.725 12.471 23.797 12.448.176-.056 12.678-24.397 13.037-25.362 1.676-4.565.524-9.882-2.88-13.33-3.913-3.96-9.592-4.737-14.157-1.93-2.06 1.276-3.016 2.41-4.767 5.707l-1.309 2.45-2.727-1.347c-2.176-1.07-2.935-1.39-3.74-1.564-2.563-.56-5.327-.195-7.596.994z" fill="url(#paint0_linear)" fill-opacity=".9"/><defs><linearGradient id="paint0_linear" x1="30.51" y1="42.394" x2="18.249" y2="4.047" gradientUnits="userSpaceOnUse"><stop stop-color="#DE7987"/><stop offset="1" stop-color="#E4678C"/></linearGradient></defs></svg>