<svg width="63" height="61" fill="none" xmlns="http://www.w3.org/2000/svg"><path d="M53.27 11.868c2.866 1.505 5.058 3.692 6.665 6.683 3.24 6.052 2.705 13.42-1.38 19.019-1.607 2.195-3.405 3.772-5.768 5.06-4.32 2.35-33.274 17.492-33.376 17.46-.247-.08-17.78-34.218-18.285-35.572-2.35-6.402-.734-13.858 4.04-18.695C10.655.27 18.62-.82 25.022 3.115c2.89 1.791 4.23 3.381 6.686 8.006l1.836 3.435 3.825-1.888c3.051-1.502 4.116-1.951 5.245-2.194 3.594-.786 7.471-.274 10.654 1.394z" fill="url(#paint0_linear)" fill-opacity=".9"/><defs><linearGradient id="paint0_linear" x1="19.419" y1="60.092" x2="36.615" y2="6.31" gradientUnits="userSpaceOnUse"><stop stop-color="#CCD48A"/><stop offset="1" stop-color="#728D5E"/></linearGradient></defs></svg>