<svg width="49" height="49" fill="none" xmlns="http://www.w3.org/2000/svg"><path d="M27.514 2.069C29.902.774 32.45.267 35.287.544c5.733.569 10.62 4.384 12.615 9.848.78 2.146 1.039 4.136.833 6.385-.38 4.11-3.352 31.37-3.422 31.425-.17.135-32.161-3.59-33.34-3.871C6.41 42.978 1.966 38.368.825 32.78-.48 26.359 2.48 20.296 8.216 17.67c2.598-1.177 4.333-1.37 8.704-.92l3.253.325.47-3.55c.38-2.828.563-3.78.921-4.68 1.132-2.874 3.3-5.337 5.95-6.777z" fill="url(#paint0_linear)" fill-opacity=".9"/><defs><linearGradient id="paint0_linear" x1="45.319" y1="48.198" x2="15.859" y2="11.083" gradientUnits="userSpaceOnUse"><stop stop-color="#F2DAA6"/><stop offset="1" stop-color="#F1C25C"/></linearGradient></defs></svg>