<svg width="76" height="73" fill="none" xmlns="http://www.w3.org/2000/svg"><path d="M64.537 13.897c3.462 1.818 6.11 4.46 8.05 8.072 3.915 7.31 3.269 16.21-1.665 22.972-1.942 2.652-4.114 4.556-6.968 6.112-5.217 2.839-40.19 21.127-40.312 21.088-.298-.096-21.476-41.33-22.085-42.964-2.839-7.733-.888-16.74 4.878-22.581C13.066-.11 22.687-1.43 30.42 3.326c3.49 2.162 5.11 4.083 8.075 9.668l2.218 4.15 4.62-2.281c3.686-1.814 4.972-2.356 6.335-2.65 4.341-.949 9.024-.33 12.869 1.684z" fill="url(#paint0_linear)" fill-opacity=".9"/><defs><linearGradient id="paint0_linear" x1="23.651" y1="72.144" x2="44.421" y2="7.184" gradientUnits="userSpaceOnUse"><stop stop-color="#CCC269"/><stop offset="1" stop-color="#A18B2F"/></linearGradient></defs></svg>