<svg width="51" height="49" fill="none" xmlns="http://www.w3.org/2000/svg"><path d="M7.267 9.22c-2.347 1.233-4.143 3.025-5.46 5.474-2.653 4.957-2.215 10.992 1.13 15.578 1.317 1.798 2.79 3.09 4.725 4.144 3.538 1.925 27.253 14.326 27.336 14.3.202-.065 14.563-28.026 14.976-29.134 1.925-5.244.602-11.35-3.308-15.312-4.497-4.547-11.02-5.441-16.264-2.218-2.367 1.467-3.465 2.769-5.476 6.557l-1.504 2.814-3.133-1.547c-2.499-1.23-3.371-1.598-4.295-1.797-2.944-.644-6.12-.224-8.727 1.142z" fill="url(#paint0_linear)" fill-opacity=".9"/><defs><linearGradient id="paint0_linear" x1="34.992" y1="48.718" x2="20.908" y2="4.669" gradientUnits="userSpaceOnUse"><stop stop-color="#DE7987"/><stop offset="1" stop-color="#E4678C"/></linearGradient></defs></svg>