<svg width="81" height="79" fill="none" xmlns="http://www.w3.org/2000/svg"><path d="M71.814 21.432c3.497 2.466 5.993 5.709 7.583 9.905 3.203 8.488 1.233 18.05-5.084 24.682-2.484 2.6-5.112 4.357-8.43 5.637-6.064 2.335-46.61 17.187-46.738 17.127-.31-.146-17.402-47.897-17.83-49.757-1.977-8.793 1.424-18.285 8.512-23.8 8.15-6.33 18.774-6.387 26.485-.127 3.478 2.844 4.96 5.158 7.381 11.64l1.814 4.818 5.338-1.816c4.256-1.442 5.729-1.847 7.25-1.97 4.844-.411 9.836.927 13.72 3.661z" fill="url(#paint0_linear)" fill-opacity=".9"/><defs><linearGradient id="paint0_linear" x1="19.155" y1="78.787" x2="50.95" y2="11.282" gradientUnits="userSpaceOnUse"><stop stop-color="#DE7987"/><stop offset="1" stop-color="#E4678C"/></linearGradient></defs></svg>