<svg width="100" height="96" fill="none" xmlns="http://www.w3.org/2000/svg"><path d="M14.548 18.159c-4.597 2.413-8.113 5.921-10.69 10.718-5.198 9.707-4.34 21.525 2.212 30.505 2.578 3.52 5.462 6.05 9.252 8.116 6.928 3.77 53.367 28.054 53.53 28.002.396-.127 28.517-54.88 29.327-57.051C101.947 28.18 99.357 16.22 91.7 8.464 82.895-.441 70.12-2.193 59.85 4.12c-4.634 2.872-6.784 5.422-10.723 12.84l-2.944 5.51-6.136-3.03c-4.894-2.408-6.601-3.128-8.411-3.518-5.765-1.26-11.984-.44-17.089 2.236z" fill="url(#paint0_linear)" fill-opacity=".9"/><defs><linearGradient id="paint0_linear" x1="68.84" y1="95.504" x2="41.26" y2="9.245" gradientUnits="userSpaceOnUse"><stop stop-color="#CCC269"/><stop offset="1" stop-color="#A18B2F"/></linearGradient></defs></svg>