<svg width="108" height="108" fill="none" xmlns="http://www.w3.org/2000/svg"><path d="M100.206 48.836c3.874 4.68 6.088 10.052 6.711 16.393 1.238 12.822-5.006 25.19-16.117 31.926-4.366 2.637-8.616 4.066-13.634 4.586-9.172.941-70.206 6.197-70.358 6.068-.37-.315-6.068-72.103-5.964-74.812.555-12.783 8.732-24.522 20.484-29.44 13.508-5.638 28.079-1.763 36.317 9.684 3.708 5.192 4.88 8.914 5.791 18.697l.697 7.276 7.983-.5c6.364-.392 8.53-.399 10.659-.003 6.787 1.241 13.127 4.934 17.431 10.125z" fill="url(#paint0_linear)" fill-opacity=".9"/><defs><linearGradient id="paint0_linear" x1="6.82" y1="107.819" x2="75.465" y2="27.219" gradientUnits="userSpaceOnUse"><stop stop-color="#CCD48A"/><stop offset="1" stop-color="#728D5E"/></linearGradient></defs></svg>