<svg width="132" height="130" fill="none" xmlns="http://www.w3.org/2000/svg"><path d="M13.846 40.64C8.33 45.093 4.551 50.726 2.373 57.836-2.011 72.22 2.278 87.823 13.44 98.111c4.39 4.032 8.925 6.654 14.55 8.414 10.282 3.209 78.941 23.402 79.146 23.289.496-.274 23.62-81.09 24.128-84.213 2.32-14.756-4.327-30.088-16.644-38.446-14.161-9.589-31.738-8.54-43.817 2.644-5.445 5.079-7.648 9.065-10.953 20.047l-2.48 8.164-9.025-2.428c-7.194-1.926-9.674-2.437-12.202-2.478-8.057-.157-16.169 2.595-22.297 7.534z" fill="url(#paint0_linear)" fill-opacity=".9"/><defs><linearGradient id="paint0_linear" x1="107.12" y1="129.824" x2="47.26" y2="21.603" gradientUnits="userSpaceOnUse"><stop stop-color="#F2DAA6"/><stop offset="1" stop-color="#F1C25C"/></linearGradient></defs></svg>