<svg version="1.0" xmlns="http://www.w3.org/2000/svg" width="1672" height="810.667" viewBox="0 0 1254 608"><path d="M1064.3 74.7c-1.3.2-2.3.9-2.3 1.4 0 .5-1.1.9-2.5.9s-3 .9-3.7 2c-.7 1.1-1.8 2-2.5 2s-1.3.5-1.3 1c0 .6-1.1 2.1-2.4 3.3-1.4 1.3-2.8 3.5-3.1 5-.4 1.5-1.1 2.7-1.5 2.7-.4 0-1.1 1.6-1.4 3.5-.4 1.9-1.1 3.5-1.6 3.5s-1.2 2-1.6 4.5c-.3 2.6-1.2 5.2-1.9 5.9-.7.7-1.6 3.1-2 5.4-.4 2.3-1 4.2-1.5 4.2-.4 0-1.1 2-1.4 4.5-.4 2.5-1.1 4.5-1.6 4.5s-1.2 2-1.6 4.5c-.3 2.5-1 4.5-1.4 4.5-.5 0-1.1 1.8-1.5 4-.4 2.2-1 4-1.4 4-.4 0-1.3 2.9-2 6.5s-1.7 6.5-2.1 6.5c-.4 0-1.1 2-1.4 4.5-.4 2.5-1.1 4.5-1.5 4.5-.5 0-1.2 2-1.5 4.5-.4 2.5-1.1 4.5-1.6 4.5s-1.2 2-1.6 4.5c-.3 2.5-1 4.5-1.4 4.5-.5 0-1.1 1.8-1.5 4-.4 2.2-1 4-1.4 4-.4 0-1.3 2.9-2 6.5s-1.7 6.5-2.1 6.5c-.5 0-1.2 2.5-1.5 5.5-.4 3-1.1 5.5-1.5 5.5-.5 0-1.1 1.8-1.5 4-.4 2.2-1 4-1.5 4-.4 0-1.1 2-1.4 4.5-.4 2.5-1.1 4.5-1.6 4.5s-1.2 2-1.6 4.5c-.3 2.5-1 4.5-1.4 4.5-.4 0-1.3 2.9-2 6.5s-1.6 6.5-2.1 6.5c-.4 0-1.1 2-1.5 4.5-.3 2.5-1 4.5-1.4 4.5-.5 0-1.1 2.2-1.5 5-.4 2.7-1.1 5-1.5 5-.5 0-1.2 2-1.6 4.5-.3 2.5-1 4.5-1.4 4.5-.4 0-1.4 2.9-2.1 6.5-.7 3.6-1.6 6.5-2 6.5-.4 0-1 1.8-1.4 4-.4 2.2-1 4-1.5 4-.4 0-1.1 2-1.4 4.5-.4 2.5-1.1 4.5-1.6 4.5s-1.2 2-1.6 4.5c-.3 2.5-1 4.5-1.4 4.5-.4 0-1.1 1.6-1.4 3.5-.4 1.9-1.1 3.5-1.5 3.5-.5 0-1.4 2.9-2.1 6.5-.7 3.6-1.6 6.5-2 6.5-.4 0-1.1 2-1.4 4.5-.4 2.5-1.1 4.5-1.7 4.5-.5 0-.9.6-.9 1.4 0 1-2.5 1.5-9.5 1.9-13 .7-13.9 1.6-13.3 13 .3 6 .9 8.9 2 10.1 1.5 1.4 6.3 1.6 43.2 1.6 23.1 0 41.6-.4 41.6-.9s1.3-1.1 2.9-1.4c2.5-.5 3.1-1.3 3.7-4.3.8-4.6-.2-14.8-1.6-15.2-.5-.2-1-1-1-1.8 0-1.1-2-1.4-10-1.4h-10v-2.5c0-1.4.4-2.5.8-2.5.5 0 1.4-4.1 2.1-9 .7-5 1.6-9 2.1-9 .4 0 1.1-3.2 1.4-7 .4-3.9 1.1-7 1.6-7s1.2-2.3 1.6-5c.4-2.8 1-5 1.4-5 .4 0 1.1-2.5 1.5-5.5.3-3 1-5.5 1.5-5.5s1.2-2.5 1.5-5.5c.4-3 1.1-5.5 1.6-5.5s.9-1.1.9-2.5V282l50.3.2 50.2.3.3 2.2c.2 1.3.7 2.3 1.2 2.3s1.2 2.5 1.5 5.5c.4 3 1.1 5.5 1.5 5.5.5 0 1.1 1.8 1.5 4 .4 2.2 1 4 1.5 4 .4 0 1.1 2.5 1.5 5.5.3 3 1 5.5 1.5 5.5.4 0 1.3 3.6 2.1 8 .7 4.4 1.6 8 2 8 .5 0 1.1 2.2 1.5 5 .4 2.7 1 5 1.4 5 .4 0 1.1 2.5 1.5 5.5.3 3 1.1 5.5 1.6 5.5s.9.4.9.9c0 .4-4 1.1-9 1.4-12.5.8-13.4 1.7-12.8 13 .3 6 .9 8.9 2 10.1 1.5 1.4 6.7 1.6 48.2 1.6 30.4 0 46.6-.3 46.6-1 0-.6 1-1 2.3-1 3.9 0 5.7-3.3 5.7-10.5 0-3.6-.4-6.5-.9-6.5s-1.1-1.2-1.3-2.8l-.3-2.7-9.4-.3c-9-.3-12.1-1.3-12.1-4.1 0-.5-.6-1.6-1.3-2.3-.7-.7-1.9-3.9-2.6-7.1-.7-3.1-1.6-5.7-2.1-5.7s-1.2-2-1.6-4.5c-.3-2.5-1-4.5-1.5-4.5-.4 0-1.1-1.6-1.5-3.5-.3-1.9-1-3.5-1.5-3.5-.4 0-1.1-2-1.5-4.5-.3-2.5-1-4.5-1.5-4.5-.4 0-1.1-1.6-1.5-3.5-.3-1.9-1-3.5-1.4-3.5-.4 0-1.3-2.9-2-6.5s-1.6-6.5-2.1-6.5c-.4 0-1.1-1.6-1.5-3.5-.3-1.9-1-3.5-1.4-3.5-.4 0-1.1-2-1.4-4.5-.4-2.5-1.1-4.5-1.5-4.5-.5 0-1.2-2-1.5-4.5-.4-2.5-1.1-4.5-1.6-4.5s-1.2-1.6-1.6-3.5c-.3-1.9-.9-3.5-1.3-3.5s-1.3-2.9-2-6.5-1.7-6.5-2.1-6.5c-.4 0-1.1-2-1.4-4.5-.4-2.5-1.1-4.5-1.6-4.5s-1.2-2-1.6-4.5c-.3-2.5-1-4.5-1.4-4.5-.4 0-1.1-1.6-1.4-3.5-.4-1.9-1.1-3.5-1.6-3.5s-1.2-2-1.6-4.5c-.3-2.5-1-4.5-1.4-4.5-.4 0-1.4-2.9-2.1-6.5-.7-3.6-1.6-6.5-2-6.5-.4 0-1.1-2-1.5-4.5-.3-2.5-1-4.5-1.4-4.5-.5 0-1.1-1.8-1.5-4-.4-2.2-1-4-1.5-4-.4 0-1.1-2-1.4-4.5-.4-2.5-1.1-4.5-1.6-4.5s-1.2-2-1.6-4.5c-.3-2.5-1-4.5-1.4-4.5-.5 0-1.4-2.5-2.1-5.5-.7-3-1.5-5.5-1.9-5.5-.4 0-1.1-2-1.4-4.5-.4-2.5-1.1-4.5-1.6-4.5s-1.2-2-1.6-4.5c-.3-2.5-1-4.5-1.4-4.5-.5 0-1.1-1.9-1.5-4.2-.4-2.3-1.4-4.8-2.1-5.6-.8-.7-1.4-2.4-1.4-3.8 0-1.3-.4-2.4-.9-2.4s-1.4-2.9-2.1-6.5c-.7-3.6-1.6-6.5-2.1-6.5-.4 0-1.1-1.6-1.5-3.5-.3-1.9-1-3.5-1.5-3.5s-.9-1.1-.9-2.4c0-1.4-.6-3.1-1.4-3.8-.7-.8-1.7-3.3-2.1-5.6-.4-2.3-1.1-4.2-1.5-4.2-.5 0-1.1-1.4-1.5-3-.4-1.7-1.1-3-1.6-3s-.9-.6-.9-1.4c0-.8-.7-1.7-1.6-2-1.7-.7-35.6-.6-39.1.1zm8.7 53.4c0 1 .4 1.9 1 1.9.5 0 1.3 1.8 1.6 4 .4 2.2 1 4 1.4 4 .5 0 1.1 1.8 1.5 4 .4 2.2 1 4 1.5 4 .4 0 1 1.8 1.4 4 .3 2.2 1 4 1.5 4s1.2 1.8 1.6 4c.4 2.2 1 4 1.5 4 .4 0 1.3 3.4 2.1 7.5.7 4.1 1.6 7.5 2 7.5.4 0 1.1 2 1.5 4.5.3 2.5 1 4.5 1.4 4.5.5 0 1.1 1.8 1.5 4 .4 2.2 1 4 1.5 4 .4 0 1.1 2 1.4 4.5.4 2.5 1.1 4.5 1.6 4.5s1.2 2 1.6 4.5c.3 2.5 1 4.5 1.4 4.5.5 0 1.4 3.1 2 7 .6 3.8 1.5 7 2 7 .4 0 1.1 2 1.4 4.5.4 2.5 1.1 4.5 1.6 4.5.4 0 1.1 1.9 1.5 4.2.4 2.4 1.1 4.5 1.5 4.8.4.3 1 2.4 1.4 4.7l.6 4.3h-41.5c-36.2 0-41.5-.2-41.5-1.5 0-.8.4-1.5.9-1.5s1.3-2.5 1.6-5.5c.4-3 1.1-5.5 1.5-5.5.5 0 1.1-1.8 1.5-4 .4-2.2 1-4 1.4-4 .4 0 1.4-3.6 2.1-8 .7-4.4 1.7-8 2.1-8 .4 0 1-2 1.3-4.5.4-2.5 1.1-4.5 1.5-4.5.5 0 1.1-2.3 1.5-5 .4-2.8 1-5 1.5-5s1.1-2.3 1.5-5c.4-2.8 1.1-5 1.5-5 .5 0 1.2-2 1.5-4.5.4-2.5 1.1-4.5 1.5-4.5.4 0 1.3-3.4 2-7.5.8-4.1 1.7-7.5 2.1-7.5.5 0 1.1-2.3 1.5-5 .4-2.8 1.1-5 1.5-5 .5 0 1.2-2 1.6-4.5.3-2.5 1-4.5 1.4-4.5.5 0 1.1-1.8 1.5-4 .4-2.2 1-4 1.5-4 .4 0 1-1.6 1.3-3.5.9-5.5 4.7-8.3 4.7-3.4zM8.8 77.7c-2.2.6-3.2 5.8-2.5 13.4.7 8.1 1.8 8.9 11.6 8.9 6.5 0 8.1.3 8.1 1.5 0 .8.4 1.5.9 1.5s1.2 1.6 1.5 3.5c.4 1.9 1.1 3.5 1.5 3.5.5 0 1.2 1.6 1.5 3.5.4 1.9 1.1 3.5 1.5 3.5.5 0 1.2 2 1.5 4.5.4 2.5 1.1 4.5 1.6 4.5s1.5 2.7 2.2 6c.6 3.3 1.5 6 1.9 6 .4 0 1 1.6 1.3 3.5.4 1.9 1.1 3.5 1.6 3.5s1.2 2 1.6 4.5c.3 2.5 1 4.5 1.4 4.5.5 0 1.1 1.8 1.5 4 .4 2.2 1 4 1.5 4 .4 0 1.1 2 1.4 4.5.4 2.5 1.1 4.5 1.5 4.5.5 0 1.4 2.9 2.1 6.5.7 3.6 1.6 6.5 2 6.5.4 0 1.1 2 1.4 4.5.4 2.5 1.1 4.5 1.6 4.5s1.2 2 1.6 4.5c.3 2.5 1 4.5 1.4 4.5.5 0 1.1 1.8 1.5 4 .4 2.2 1 4 1.5 4 .4 0 1.1 2 1.4 4.5.4 2.5 1.1 4.5 1.5 4.5.5 0 1.4 2.9 2.1 6.5.7 3.6 1.6 6.5 2 6.5.4 0 1.1 2 1.4 4.5.4 2.5 1.1 4.5 1.6 4.5s1.2 2 1.6 4.5c.3 2.5 1 4.5 1.4 4.5.5 0 1.1 1.8 1.5 4 .4 2.2 1.1 4 1.5 4 .5 0 1.2 2.5 1.5 5.5.4 3 1.1 5.5 1.5 5.5.4 0 1.4 2.9 2.1 6.5.7 3.6 1.6 6.5 2 6.5.4 0 1 1.8 1.4 4 .4 2.2 1 4 1.5 4 .4 0 1.1 2 1.4 4.5.4 2.5 1.1 4.5 1.6 4.5s1.2 2 1.6 4.5c.3 2.5 1 4.5 1.5 4.5.4 0 1.1 2 1.5 4.5.3 2.5 1 4.5 1.4 4.5.4 0 1.4 2.9 2.1 6.5.7 3.6 1.6 6.5 2 6.5.4 0 1 1.8 1.4 4 .4 2.2 1 4 1.5 4 .4 0 1.1 2 1.4 4.5.4 2.5 1.1 4.5 1.6 4.5s1.2 2 1.6 4.5c.3 2.5 1 4.5 1.5 4.5.4 0 1.1 2 1.5 4.5.3 2.5 1 4.5 1.4 4.5.4 0 1.3 2.5 2 5.5s1.7 5.5 2.1 5.5c.4 0 1 1.3 1.4 2.9.5 2.5 1.2 2.9 5.2 3.5 12.3 1.7 43.3 0 43.3-2.4 0-.4 1.1-1.1 2.5-1.4 1.4-.4 2.5-1.1 2.5-1.6 0-.6.6-1 1.3-1 1.6 0 4-2.8 5.8-6.8.8-1.8 1.7-3.2 2-3.2.4 0 1-1.6 1.3-3.5.4-1.9 1.1-3.5 1.5-3.5.5 0 1.1-1.8 1.5-4 .3-2.2 1-4 1.5-4s1.2-1.8 1.6-4c.4-2.2 1-4 1.5-4 .4 0 1.1-2 1.4-4.5.4-2.5 1.1-4.5 1.6-4.5s1.5-2.7 2.2-6c.6-3.3 1.5-6 1.9-6 .4 0 1-1.8 1.4-4 .4-2.2 1-4 1.5-4 .4 0 1.1-2 1.4-4.5.4-2.5 1.1-4.5 1.6-4.5s1.2-2.3 1.6-5c.4-2.8 1-5 1.4-5 .4 0 1.1-2 1.4-4.5.4-2.5 1.1-4.5 1.5-4.5.5 0 1.4-2.9 2.1-6.5.7-3.6 1.6-6.5 2.1-6.5.4 0 1.1-2 1.5-4.5.3-2.5 1-4.5 1.4-4.5.4 0 1-2.3 1.4-5 .4-2.8 1.1-5 1.6-5s1.2-2 1.6-4.5c.3-2.5 1-4.5 1.4-4.5.5 0 1.1-1.8 1.5-4 .4-2.2 1-4 1.4-4 .4 0 1.3-3.4 2-7.5s1.6-7.5 2.1-7.5 1.2-2 1.6-4.5c.3-2.5 1-4.5 1.4-4.5.4 0 1-2.3 1.4-5 .4-2.8 1.1-5 1.5-5 .5 0 1.2-1.9 1.6-4.3.4-2.3 1.1-4.4 1.6-4.7.4-.3 1.4-3.6 2.1-7.3.7-3.7 1.6-6.7 1.9-6.7.4 0 1-2 1.3-4.5.4-2.5 1.1-4.5 1.6-4.5s1.2-2 1.6-4.5c.3-2.5 1-4.5 1.5-4.5.4 0 1.1-2.3 1.5-5 .4-2.8 1-5 1.5-5 .4 0 1.1-2 1.5-4.5.3-2.5 1-4.5 1.4-4.5.4 0 1.4-2.9 2.1-6.5.7-3.6 1.6-6.5 2-6.5.4 0 1-1.8 1.4-4 .4-2.2 1-4 1.5-4 .4 0 1.1-2.5 1.5-5.5.3-3 1-5.5 1.5-5.5.4 0 1.1-1.8 1.5-4 .4-2.2 1.1-4 1.6-4s.9-.7.9-1.5c0-1.2 1.6-1.5 8-1.5 4.7 0 8-.4 8-1s.7-1 1.5-1 1.7-1.4 2.1-3.6c.9-5.1-.2-15.5-1.8-16.5-1.7-1.1-88.4-.7-89.5.4-.4.5-.8 4.8-.8 9.6 0 11.6.5 12.1 12.4 12.1h9.1v3.5c0 1.9-.4 3.5-.9 3.5-.4 0-1.2 3.6-1.5 8-.4 4.4-1.1 8-1.5 8-.4 0-1.3 4.4-2 9.7-.6 5.4-1.5 10-2 10.3-.5.3-1.2 3.5-1.5 7.2-.4 3.8-1.1 6.8-1.6 6.8s-1.2 2.5-1.5 5.5c-.4 3-1.1 5.5-1.5 5.5-.4 0-1.1 2.7-1.5 6-.4 3.3-1.1 6-1.5 6-.4 0-1.1 2.5-1.5 5.5-.3 3-1 5.5-1.4 5.5-.5 0-1.4 4-2.1 9-.7 4.9-1.7 9-2.1 9-.5 0-1.1 2.2-1.5 5-.4 2.7-1 5-1.4 5-.4 0-1 2.2-1.4 5-.4 2.7-1.1 5-1.5 5-.5 0-1.2 2.7-1.6 6-.4 3.3-1 6-1.5 6-.4 0-1 2.2-1.4 5-.4 2.7-1 5-1.5 5-.4 0-1.4 3.6-2.1 8-.7 4.4-1.7 8-2 8-.4 0-1 2.2-1.4 5-.4 2.7-1 5-1.5 5s-1.1 2.2-1.5 5c-.4 2.7-1.1 5-1.5 5-.5 0-1.2 2.5-1.6 5.5-.3 3-1 5.5-1.5 5.5-.4 0-1.1 2.2-1.5 5-.4 2.7-1.1 5-1.5 5-.5 0-1.4 3.1-2 7-.6 3.8-1.5 7-2 7-.4 0-1 1.8-1.4 4-.3 2.2-1.1 4-1.6 4-.6 0-1 .7-1 1.5s-.7 1.5-1.5 1.5c-1 0-1.7-1.4-2.1-4-.4-2.2-1-4-1.4-4-.4 0-1.1-1.6-1.4-3.5-.4-1.9-1.1-3.5-1.5-3.5-.5 0-1.4-2.9-2.1-6.5-.7-3.6-1.6-6.5-2.1-6.5-.4 0-1.1-2-1.5-4.5-.3-2.5-1-4.5-1.4-4.5-.4 0-1-2.3-1.4-5-.4-2.8-1.1-5-1.6-5s-1.2-2-1.6-4.5c-.3-2.5-1-4.5-1.4-4.5-.5 0-1.1-1.8-1.5-4-.4-2.2-1-4-1.4-4-.4 0-1.3-3.4-2-7.5s-1.6-7.5-2.1-7.5-1.2-2.3-1.6-5c-.4-2.8-1-5-1.4-5-.4 0-1.1-2-1.4-4.5-.4-2.5-1.1-4.5-1.6-4.5s-1.2-2.3-1.6-5c-.4-2.8-1-5-1.5-5-.4 0-1.1-2-1.5-4.5-.3-2.5-.9-4.5-1.3-4.5-.3 0-1.2-3-1.9-6.7s-1.7-7-2.2-7.3c-.5-.3-1.2-2.9-1.6-5.8-.3-2.8-1-5.2-1.5-5.2s-1.1-2.3-1.5-5c-.4-2.8-1-5-1.4-5-.5 0-1.1-1.8-1.5-4-.4-2.2-1-4-1.5-4-.4 0-1.1-2.5-1.5-5.5-.3-3-1-5.5-1.4-5.5-.4 0-1.3-3.2-2-7-.7-3.9-1.6-7-2.1-7-.4 0-1.1-2.7-1.5-6-.4-3.3-1.1-6-1.6-6-.4 0-1.1-2.3-1.5-5-.4-2.8-1-5-1.5-5s-1.1-2.3-1.5-5c-.4-2.8-1-5-1.4-5-.5 0-1.1-2.7-1.5-6-.4-3.3-1.1-6-1.6-6s-.9-.9-.9-2c0-1.8.7-2 8-2 4.4 0 8-.4 8-.9s1.1-1.2 2.5-1.5c2.4-.6 2.5-.9 2.5-8.6 0-4.7-.4-8-1-8-.5 0-1-.9-1-2 0-2-.6-2-47.7-1.9-26.3.1-48.6.3-49.5.6zm310.8 1.7c-2.2 2-2.6 3.2-2.6 8 0 3.1.5 5.6 1 5.6.6 0 1 .9 1 1.9 0 5 .4 5.1 14.9 5.1h13.8l.6 30.7c.9 39.6.9 144.7 0 190l-.6 35.3h-9.2c-14.2 0-18.4.8-19.1 3.6-.4 1.3-1 2.4-1.5 2.4s-.9 2.5-.9 5.5.4 5.5.9 5.5 1.1 1.8 1.5 4l.6 4h51.5c33.7 0 51.5-.3 51.5-1 0-.6 1.2-1 2.6-1 1.7 0 2.8-.6 3.1-2 .3-1.1.9-2 1.4-2 .5 0 .9-2.3.9-5 0-2.8-.4-5-1-5-.5 0-1-1-1-2.3 0-1.2-.3-3.2-.6-4.5-.6-2.1-1-2.2-14.4-2.2h-13.7l-.6-30.8c-.9-39.6-.9-175.3 0-203.5l.6-21.7h12.3c10.3 0 12.7-.3 14.4-1.7 1.1-1 2-2.3 2-3 0-.7.5-1.3 1-1.3.6 0 1-2.3 1-5 0-2.8-.4-5-1-5-.5 0-1-.9-1-1.9 0-5.4 3.1-5.1-54.1-5.1h-52.8l-2.5 2.4zm157 0c-2.2 2-2.6 3.2-2.6 8 0 3.1.5 5.6 1 5.6.6 0 1 .9 1 1.9 0 4.9.6 5.1 12.6 5.1H500v9.5c0 5.7.4 9.5 1 9.5.7 0 1 37.5 1 110.5s-.3 110.5-1 110.5c-.6 0-1 3.5-1 8.5v8.5h-10.5c-6.3 0-10.5.4-10.5 1 0 .5-.7 1-1.5 1s-1.5.7-1.5 1.5-.4 1.5-1 1.5c-.5 0-1 2.5-1 5.5s.4 5.5.9 5.5 1.1 1.8 1.5 4l.6 4h93c51.7 0 93-.4 93-.9 0-.4 3.2-1.1 7.2-1.3 4-.3 7.4-1.1 7.6-1.7.2-.6.9-1.1 1.5-1.1 1.5 0 5.7-4.4 5.7-5.8 0-.6.5-1.2 1.2-1.4 1.5-.5 1.5-18.7.1-19.7-.6-.3-1.3-2.3-1.7-4.4-.4-2-1.1-3.7-1.5-3.7-.5 0-1.1-1.4-1.4-3-.6-2.7-3.7-4.5-3.7-2.1 0 .6-2 1.3-4.5 1.7-2.5.3-4.5 1-4.5 1.5 0 .4-2.2 1.1-5 1.5-2.7.4-5 1-5 1.4 0 .5-3.3 1.1-7.2 1.5-4 .4-7.5 1.1-7.8 1.6-.3.4-4.4 1.1-9 1.5-4.7.4-8.7 1.1-9.1 1.5-.3.5-16.4 1.4-35.8 2-29.9 1-35.5 1-36.2-.2-1-1.6-1.2-244-.3-247.7.6-2.1 1-2.2 13-2.2 7.6 0 12.4-.4 12.4-1s.7-1 1.5-1 1.7-1.4 2.1-3.6c.9-5.1-.2-15.5-1.8-16.5-.7-.5-23.9-.9-51.5-.9h-50.2l-2.5 2.4zm240.2-1.3c-1.8.7-2.9 2-3.3 4-.8 3.6.3 12.9 1.6 12.9.5 0 .9 1.1.9 2.5v2.5h22.7l.7 4.6c.8 5.9.8 247.1 0 250.1-.6 2.2-1.1 2.3-11 2.3-9.5 0-10.6.2-12.6 2.2s-2.3 3.3-2.2 9.3c.1 4 .7 7.1 1.3 7.3.6.2 1.1 1.5 1.1 2.8v2.4h93c51.5 0 93-.4 93-.9 0-.4 3-1.1 6.6-1.4 3.7-.3 6.9-1 7.3-1.5.3-.6 1.9-1.4 3.4-1.7 1.5-.4 2.7-1.2 2.7-1.7s.7-1.6 1.5-2.4c.8-.9 1.5-2.4 1.5-3.5 0-1 .5-1.9 1-1.9.6 0 1-2.8 1-6.5 0-3.6-.4-6.5-.9-6.5s-1.1-2.3-1.5-5c-.4-2.8-1.1-5-1.5-5-.5 0-1.2-1.2-1.5-2.6-.8-2.9-2.9-5.4-4.5-5.4-.6 0-1.1.4-1.1.9s-1.8 1.2-4 1.6c-2.2.4-4 1-4 1.5 0 .4-2.2 1.1-5 1.5-2.7.4-5 1.1-5 1.5 0 .5-3.1 1.2-7 1.6-3.8.3-7 1-7 1.4 0 .5-3.9 1.1-8.7 1.5-4.9.4-9 1.1-9.3 1.6-.5.7-49.9 2.8-67.2 2.9H793v-8c0-4.7-.4-8-1-8-.7 0-1-37.2-1-109.5s.3-109.5 1-109.5c.6 0 1-3.3 1-8v-8h12.1c9 0 12.4-.4 13.5-1.4.7-.8 1.9-1.6 2.6-1.8 1.9-.7 1.4-16.3-.6-18.3-1.3-1.3-8.4-1.5-51.3-1.4-29.9 0-50.9.5-52.5 1zM6 526.5V607h1242V446H6v80.5zm68-29c0 9.1.3 16.5.8 16.5.4 0 1.5-.8 2.3-1.8 4.8-5.2 6.1-5.7 15.5-5.7 7.3 0 9.4.3 10.8 1.7 1 1 2.4 1.8 3.2 1.8.8 0 1.4.6 1.4 1.3 0 .7.9 2 2 3 1.1.9 2 2.5 2 3.6s.6 2.1 1.3 2.4c1.6.5 1.7 23.4.1 24.5-.6.4-1.5 1.8-1.9 3.1-.8 2.7-6.3 8.1-8.1 8.1-.7 0-1.4.5-1.6 1.1-.2.5-2.2 1.3-4.6 1.6-2.3.3-4.2 1-4.2 1.4 0 .5-.9.9-2 .9s-2-.4-2-.9c0-.4-1.7-1.1-3.9-1.4-2.7-.3-5-1.6-7.7-4.3l-3.9-3.7-.3 4.1c-.3 3.9-.5 4.2-3.2 4.2-1.5 0-3.5-.3-4.4-.6-1.7-.7-2.2-3.4-.6-3.4.6 0 1-13 1-37v-37h8v16.5zm352.2-3.6c3.7.5 7.3 1.4 8 2 7.6 6.5 7.3 5.9 7.3 14.6 0 7.9-.1 8.2-3.5 11.6-1.9 2-4.3 3.9-5.2 4.2-2 .7-2.4 2.7-.7 2.7 2.2 0 6.1 5.4 6.7 9.2.2 2.1.8 3.8 1.2 3.8.5 0 1.1 2.7 1.5 6 .4 3.3 1 6 1.5 6 .4 0 1 1.1 1.3 2.5.4 2.5.3 2.6-4.2 2.3l-4.6-.3-.9-5c-.6-2.8-1.3-5.2-1.6-5.5-.4-.3-1-2.5-1.3-4.9-.3-2.4-1-4.7-1.5-5-.5-.3-1.3-1.6-1.6-2.9-.5-1.5-1.8-2.5-3.7-2.9-1.6-.3-2.9-.9-2.9-1.4 0-.5-2.7-.9-6-.9h-6v29.1l-3.7-.3-3.8-.3v-64l5.5-.6c8.6-.9 11-.9 18.2 0zm108.8.2c2.7.6 5 1.5 5 2s-.4.9-1 .9c-.5 0-1 .8-1 1.8 0 1.6-1.1 1.8-12.7 1.7-9.2 0-12.7.3-13 1.2-.3.7-.9 1.3-1.5 1.3-1.3 0-8.8 7.5-8.8 8.8 0 .6-.6 1.2-1.2 1.4-1.7.6-1.8 24.5-.2 25.6.6.4 1.5 1.8 1.9 3.1.8 2.8 5.2 7.1 7.1 7.1.7 0 1.4.5 1.6 1.1.2.6 2.5 1.3 5.1 1.6 2.6.3 4.7 1 4.7 1.4 0 1.2 5.7 1.2 6.2.1.2-.5 2.7-1.2 5.6-1.5l5.2-.6v3.3c0 2.9-.4 3.4-3.1 4-1.7.3-4.9.6-7 .6-2.2 0-3.9.4-3.9 1 0 .5-.7 1-1.5 1s-1.5-.4-1.5-.9c0-.4-2.8-1.1-6.1-1.4-3.4-.3-6.5-1-6.8-1.5-.3-.5-2.3-1.5-4.3-2.1-2.1-.7-3.8-1.6-3.8-2.1 0-.4-1.1-1.8-2.5-3.1-1.3-1.3-2.5-3-2.5-3.7 0-.6-.4-1.2-.9-1.2s-1.3-1.5-1.6-3.3c-.4-1.7-1.2-3.5-1.7-3.8-1.4-.9-1.3-21.2.1-21.7.6-.2 1.1-1.4 1.1-2.6 0-1.3.9-3.3 2-4.6 1.1-1.3 2-2.7 2-3.1 0-1.7 6.8-7.8 9.4-8.5 1.4-.3 2.6-1 2.6-1.4 0-2.5 18.3-3.8 27-1.9zm87.8.1c3.3.8 6.1 2.5 9.4 5.8 2.7 2.6 4.8 5.2 4.8 5.9 0 .6.4 1.1.9 1.1s1.2 1.2 1.6 2.7c.3 1.5 1.2 3.1 1.8 3.5 1.6 1 1.6 24.6 0 25.6-.6.4-1.5 2-1.8 3.5-.4 1.5-1.1 2.7-1.6 2.7s-.9.5-.9 1.2c0 1-5.4 6.4-10.3 10.5-.9.7-3.8 1.5-6.6 1.9-2.8.4-5.1 1-5.1 1.5s-1.1.9-2.5.9-2.5-.4-2.5-.9-2.3-1.1-5.1-1.3c-2.8-.3-5.4-1-5.8-1.5-.3-.5-2.1-1.6-3.9-2.4-1.8-.8-3.5-2.4-3.8-3.6-.3-1.2-1.2-2.4-2-2.7-.8-.3-1.4-1.2-1.4-2.1 0-.8-.4-1.5-.9-1.5s-1.3-1.5-1.6-3.3c-.4-1.7-1.2-3.5-1.8-3.9-1.5-.9-1.4-21.1.1-21.6.7-.2 1.2-1.4 1.2-2.7 0-1.3.6-3 1.4-3.7.7-.8 1.7-2.4 2-3.6.4-1.2 1.2-2.2 1.7-2.2s.9-.7.9-1.5c0-.9.8-1.9 1.7-2.2 1-.4 2.7-1.7 3.8-2.9 3.6-3.9 17.1-5.5 26.3-3.2zm92.7-.2c3.8.5 7.1 1.3 7.3 1.9.2.6.9 1.1 1.6 1.1 1.8 0 4.6 3.8 5.3 7.1.3 1.6.9 2.9 1.4 2.9.5 0 .9.9.9 2s-.4 2-.9 2c-.4 0-1.1 1.5-1.4 3.4-.6 4-3.5 7.3-7.2 8.2-3.3.8-3.2 2 .2 2.9 1.5.3 4.3 2.3 6.3 4.3 3.4 3.6 3.5 3.8 3.5 11.8-.1 8-.1 8.2-3.5 11.3-1.9 1.7-4.2 3.1-5.1 3.1-1 0-1.9.6-2.1 1.2-.3.9-4.7 1.4-15.1 1.6l-14.7.4v-65.1l5.8-.4c3.1-.2 6.8-.4 8.2-.5 1.4-.1 5.6.3 9.5.8zm475.6.1c4.3.9 6.2 2.1 10 6 2.6 2.7 5.1 5.9 5.5 7.1.4 1.3 1.1 2.6 1.6 2.9.6.4 1.3 2.7 1.5 5.3.3 2.5 1 4.6 1.4 4.6.5 0 .9 2.7.9 6s-.4 6-.9 6c-.4 0-1.1 2.1-1.4 4.6-.2 2.6-.9 4.9-1.5 5.3-.5.3-1.3 1.6-1.7 2.9-.9 2.9-9.1 11.2-11 11.2-.8 0-1.5.4-1.5 1 0 .5-2.2 1.2-5 1.6-2.7.4-5 1-5 1.5s-1.3.9-3 .9c-1.6 0-3-.4-3-.9 0-.4-2.1-1.1-4.6-1.4-2.6-.2-4.9-.9-5.3-1.3-.3-.5-1.9-1.6-3.6-2.4-3.7-1.8-5.5-3.5-5.5-5 0-.6-.6-1.3-1.4-1.6-.8-.3-1.7-1.7-2.1-3.2-.4-1.5-1.1-2.9-1.6-3.2-.4-.3-1.3-3.9-1.9-8-1.2-8.5.2-21.3 2.6-23.7.8-.8 1.4-2.1 1.4-2.9 0-.8.4-1.4 1-1.4.5 0 1.2-1.1 1.6-2.5.3-1.3 1.5-2.7 2.7-3.1 1.1-.3 3-1.6 4.1-2.9 3.8-4.1 15.4-5.6 25.7-3.4zm-858.3 3.1c.2 1.6.7 2.8 1.2 2.8s1.2 2 1.6 4.5c.3 2.5 1 4.5 1.4 4.5.4 0 1.4 2.9 2.1 6.5.7 3.6 1.6 6.5 2 6.5.4 0 1 1.8 1.4 4 .4 2.2 1 4 1.5 4 .4 0 1.1 2 1.4 4.5.4 2.5 1.1 4.5 1.6 4.5s1.2 2 1.6 4.5c.3 2.5 1 4.5 1.4 4.5.5 0 1.1 1.8 1.5 4 .4 2.2 1.1 4 1.6 4s.9.7.9 1.5c0 1.1-1.2 1.5-4.5 1.5s-4.5-.4-4.5-1.5c0-.8-.4-1.5-.9-1.5s-1.2-1.8-1.6-4c-.4-2.2-1-4-1.5-4-.4 0-1.1-2-1.4-4.5l-.7-4.5h-24.8l-.7 3.5c-.3 1.9-1 3.5-1.4 3.5-.4 0-1.1 2-1.4 4.5-.4 2.5-1.1 4.5-1.7 4.5-.5 0-.9.9-.9 2 0 1.7-.7 2-4.1 2h-4.1l.7-3.2c.4-1.8 1.1-3.5 1.6-3.8.4-.3 1.1-2.5 1.5-4.8.4-2.3 1-4.2 1.4-4.2.4 0 1.4-2.9 2.1-6.5.7-3.6 1.6-6.5 2-6.5.4 0 1-1.8 1.4-4 .4-2.2 1-4 1.5-4 .4 0 1.1-2 1.4-4.5.4-2.5 1.1-4.5 1.6-4.5s1.2-2 1.6-4.5c.3-2.5 1-4.5 1.4-4.5.5 0 1.1-1.9 1.5-4.3.4-2.3 1.3-4.5 1.9-5 .6-.4 3.4-.6 6.1-.5 4.6.3 5 .5 5.3 3zm479.8 1.3c.3 2.5 1 4.5 1.4 4.5.5 0 1.1 1.8 1.5 4 .4 2.2 1 4 1.4 4 .4 0 1.3 2.7 1.9 6 .7 3.3 1.7 6 2.2 6 .5 0 1.2 2 1.6 4.5.3 2.5 1 4.5 1.5 4.5.4 0 1.1 2 1.5 4.5.3 2.5 1 4.5 1.4 4.5.4 0 1.1 1.7 1.5 3.7.4 2.1 1 4 1.5 4.3.4.3 1.1 2.6 1.5 5.3l.7 4.7h-3c-4.7 0-6.1-.9-6.8-4.6-.3-1.9-.9-3.4-1.3-3.4s-1.3-2.7-1.9-6l-1.3-6H794l-.6 3c-.4 1.6-1 3-1.5 3-.4 0-1.1 2-1.5 4.5-.3 2.5-1 4.5-1.4 4.5-.5 0-1 1-1.2 2.2-.2 1.9-1 2.4-4.2 2.6l-3.8.3.7-4.8c.4-2.6 1.1-5 1.5-5.3.5-.3 1.1-2.2 1.5-4.3.4-2 1.1-3.7 1.5-3.7.4 0 1.3-3.2 2-7 .7-3.9 1.7-7 2.1-7 .4 0 1-1.8 1.4-4 .4-2.2 1-4 1.5-4 .4 0 1-1.8 1.4-4 .3-2.2 1-4 1.5-4s1.2-1.8 1.6-4c.4-2.2 1-4 1.5-4 .4 0 1.1-2 1.4-4.5l.7-4.5h11.8l.7 4.5zM890 523v29h28v7h-36v-65h8v29zm111.8-25.8l-.3 3.3-13.2.3-13.3.3V522h13c12.5 0 13 .1 13 2.1 0 4.2-2.1 4.9-14.4 4.9H975v23h29v2.9c0 1.7-.6 3.1-1.6 3.5-.9.3-9.4.6-19 .6H966v-65h36.1l-.3 3.2zm61.2-1.8c0 .8.7 1.6 1.5 2 .8.3 1.5 1.2 1.5 2.1 0 .8.5 1.5 1 1.5.6 0 1 .6 1 1.4 0 .8.6 2.1 1.3 2.8.7.7 2 2.8 2.8 4.5.7 1.8 1.7 3.3 2.1 3.3.5 0 .8.7.8 1.5 0 .9.6 1.8 1.4 2.1.8.3 1.7 1.6 2 3 .4 1.3 1.1 2.4 1.6 2.4.6 0 1 .6 1 1.3 0 .8.9 2.4 2 3.7 1.1 1.3 2 2.9 2 3.5 0 .7.6 1.5 1.4 1.8.8.3 1.7 1.9 2.1 3.6.4 1.7 1 3.1 1.5 3.1s1.1 1.3 1.5 3c1.7 8 2.5 1.2 2.5-22.5V494h9v31.9c0 28.2-.2 32-1.6 32.5-2.7 1-7.3.7-8.4-.7-4-4.8-5-6.2-5-7.4 0-.7-.6-1.6-1.4-1.9-.8-.3-1.8-1.8-2.1-3.4-.3-1.6-1.3-3.1-2.1-3.4-.8-.3-1.4-1.2-1.4-2.1 0-.8-.4-1.5-1-1.5-.5 0-1.2-1.1-1.6-2.5-.3-1.4-1-2.5-1.5-2.5s-.9-.7-.9-1.5c0-.9-.6-1.8-1.3-2.1-.8-.3-2-2-2.7-3.9-.8-1.9-1.7-3.5-2.1-3.5-.4 0-1-1.1-1.3-2.5-.4-1.4-1-2.5-1.5-2.5s-1.2-1.4-1.6-3c-.4-1.7-1.1-3-1.6-3s-1.1-1.1-1.5-2.5c-1.7-6.9-2.4-.2-2.4 24V559h-7v-65h5c3.6 0 5 .4 5 1.4zm-903 12.1c0 .8.4 1.5.9 1.5s1.2 1.6 1.5 3.5c.4 1.9 1.1 3.5 1.6 3.5s1.2 2 1.6 4.5c.3 2.6 1.2 5.2 1.9 5.9.7.7 1.6 3.1 2 5.4.4 2.3 1 4.2 1.5 4.2.4 0 1.1 2 1.4 4.5.4 2.5 1.1 4.5 1.6 4.5s1.1.8 1.3 1.7c.3 1.1.5.7.6-1 0-1.5.5-2.7 1-2.7s1.2-1.8 1.6-4c.4-2.2 1-4 1.4-4 .4 0 1.3-2.9 2-6.5s1.7-6.5 2.1-6.5c.4 0 1.1-2 1.4-4.5.4-2.5 1.1-4.5 1.5-4.5.5 0 1.2-1.6 1.5-3.6.7-3.5.7-3.5 5.4-3.2 4.1.3 4.7.6 4.4 2.3-.9 5.4-1.5 7.5-2.2 7.5-.4 0-1.1 1.6-1.4 3.5-.4 1.9-1.1 3.5-1.5 3.5-.5 0-1.2 1.6-1.5 3.5-.4 1.9-1.1 3.5-1.5 3.5-.5 0-1.2 2-1.5 4.5-.4 2.5-1.1 4.5-1.6 4.5s-1.2 1.6-1.6 3.5c-.3 1.9-1 3.5-1.5 3.5s-1.2 1.8-1.5 4.1c-.4 2.2-1.2 4.6-1.9 5.2-.6.7-1.5 2.9-1.9 4.9-.3 2-1.3 3.9-2.1 4.2-.8.3-1.5 1.2-1.5 2.1 0 .8-.4 1.5-1 1.5-.5 0-1 .5-1 1.1 0 .6-1.8 2.9-4 5.1-2.2 2.2-4 4.4-4 4.8 0 .5-1.3 1.1-3 1.5-1.6.4-3 1.1-3 1.6s-1.1.9-2.5.9c-1.7 0-2.5-.6-2.5-1.8 0-.9-.3-2.7-.6-4-.5-1.8-.2-2.4 1.5-2.9 1.1-.3 2.1-.9 2.1-1.3 0-.5 1-1.2 2.3-1.6 2.9-.9 6.2-4.3 7.2-7.4.4-1.4 1.2-2.8 1.8-3.2 1.4-.8 1.2-7.8-.1-8.7-.6-.3-1.6-2.8-2.2-5.4-.7-2.6-1.6-4.7-2-4.7-.4 0-1.1-1.6-1.4-3.5-.4-1.9-1.1-3.5-1.5-3.5-.5 0-1.1-1.8-1.5-4-.3-2.2-1-4-1.5-4s-1.2-1.6-1.5-3.5c-.4-1.9-1.1-3.5-1.5-3.5-.5 0-1.2-1.5-1.5-3.4-.4-1.9-1-3.6-1.5-3.8-.5-.2-1.2-1.8-1.6-3.6l-.7-3.2h5.1c3.9 0 5.1.4 5.1 1.5z"/><path d="M84.8 513.6c-1 .3-1.8 1-1.8 1.5s-.6.9-1.3.9c-1.9 0-4.7 3.7-5.4 7.1-.3 1.6-.9 2.9-1.4 2.9-.5 0-.9 3.4-.9 7.5 0 4.3.4 7.5 1 7.5s1 .9 1 2 .7 2.3 1.5 2.6c.8.4 1.5 1.2 1.5 2s.6 1.4 1.4 1.4c.8 0 1.6.6 1.9 1.2.5 1.6 14.4 1.8 15.5.2.4-.6 1.4-1.3 2.4-1.7.9-.3 1.9-1.9 2.3-3.6.4-1.7 1.1-3.1 1.6-3.1s.9-4.3.9-9.5c0-5.7-.4-9.5-1-9.5-.5 0-1-.6-1-1.3 0-.7-1.4-2.8-3.1-4.7-2.7-2.9-3.8-3.4-8.3-3.6-2.8-.2-5.9 0-6.8.2zm326.5-13c-.9.4-1.3 3.9-1.3 12.5V525h6.5c3.6 0 6.5-.4 6.5-.9s1.8-1.1 4-1.5c3.1-.5 4.1-1.1 4.6-3.1.3-1.4 1-2.5 1.5-2.5s.9-2.3.9-5.1c0-4.3-.4-5.5-3.1-8.1-2.8-2.9-3.7-3.2-10.7-3.5-4.3-.1-8.3 0-8.9.3zm194.5 0c-1 .3-1.8 1-1.8 1.5s-.6.9-1.4.9c-2.5 0-6.6 4.9-7.8 9.4-.7 2.5-1.6 4.6-2 4.6-.4 0-.8 4.3-.8 9.5 0 5.7.4 9.5 1 9.5s1 .9 1 2.1c0 4.8 7.4 12.8 12.6 13.6 1.9.3 3.4 1 3.4 1.4 0 .5 1.1.9 2.5.9s2.5-.5 2.5-1c0-.6 1.3-1 2.9-1 1.6 0 3.6-.7 4.5-1.5.8-.8 1.9-1.5 2.6-1.5.6 0 1.6-1.2 2.3-2.8.6-1.5 1.7-3.3 2.4-4 .7-.7 1.3-2.4 1.3-3.8 0-1.3.5-2.4 1-2.4.6 0 1-4 1-10s-.4-10-1-10c-.5 0-1-1.1-1-2.3 0-1.3-.9-3.5-2-4.8-7.6-8.9-6.7-8.4-14.4-8.6-3.9-.1-7.9.1-8.8.3zm95.2 10.3V522h5c2.8 0 5-.5 5-1 0-.6 1.3-1 2.9-1 1.7 0 4-1.1 5.7-2.7 2.4-2.2 2.9-3.5 2.9-7.2 0-7.2-2.7-9.2-13.1-9.9l-8.4-.5v11.2zm0 29.6V554h5c2.8 0 5-.4 5-.9 0-.4 1.8-1.1 3.9-1.4 2.2-.3 5-1.5 6.3-2.7 1.9-1.8 2.3-3.1 2.3-8.5s-.4-6.7-2.3-8.5c-1.3-1.2-4.1-2.4-6.3-2.7-2.1-.3-3.9-1-3.9-1.4 0-.5-2.2-.9-5-.9h-5v13.5zm472.8-39.9c-1 .3-1.8 1-1.8 1.5s-.5.9-1.1.9c-1.6 0-5.6 4.5-6.5 7.2-.3 1.3-1.2 2.6-1.8 3-1.8 1.2-1.5 25.9.4 28.1 6.4 7.4 9.1 9.8 11.9 10.3 1.7.4 3.1 1 3.1 1.5s1.4.9 3 .9c1.7 0 3-.5 3-1 0-.6 1.4-1 3-1 1.7 0 3.3-.6 3.6-1.4.3-.8 1.6-1.7 2.9-2 1.3-.3 2.7-1.6 3.1-2.9.4-1.2 1.1-2.5 1.6-2.8 1.6-1 2.8-8 2.8-16.9 0-12.2-1-15.1-6.5-20.7-4.8-4.7-4.9-4.8-11.9-5-3.9-.1-7.9.1-8.8.3zm-847.7 3.6c0 1-.5 1.8-1 1.8s-1.5 2.9-2.2 6.5c-.7 3.6-1.6 6.5-2 6.5-.4 0-1 1.8-1.4 4-.4 2.2-1.1 4-1.6 4s-.9 1.1-.9 2.5c0 2.5 0 2.5 9.6 2.5h9.6l-.7-3.3c-.4-1.7-1.1-3.4-1.5-3.7-.4-.3-1-2.3-1.4-4.5-.5-2.2-1.2-4.3-1.8-4.6-.5-.3-1.2-2.5-1.5-4.8-.3-2.2-.9-4.1-1.4-4.1-.4 0-1-1-1.2-2.3-.3-1.4-.5-1.6-.6-.5zm477.1 5.5c-.7 3.7-1.7 7-2.1 7.3-.4.3-1.1 2.3-1.5 4.5-.5 2.2-1.1 4.2-1.5 4.5-.5.3-1.1 1.7-1.5 3.2l-.6 2.8h9.5c9.5 0 9.5 0 9.5-2.5 0-1.4-.4-2.5-.9-2.5s-1.2-1.8-1.6-4c-.4-2.2-1-4-1.5-4-.4 0-1.1-2-1.4-4.5-.4-2.5-1.1-4.5-1.6-4.5s-1-1.4-1.2-3.2c-.5-5.5-2.3-4.1-3.6 2.9z"/></svg>