<svg width="45" height="43" viewBox="0 0 45 43" fill="none" xmlns="http://www.w3.org/2000/svg">
<path d="M6.3745 8.00986C4.33058 9.08283 2.76769 10.6422 1.62178 12.7748C-0.688608 17.0899 -0.307206 22.3437 2.60541 26.3356C3.75157 27.9009 5.03372 29.0253 6.71826 29.9437C9.79828 31.6192 30.443 42.415 30.5154 42.3919C30.6913 42.3356 43.1926 17.9947 43.5524 17.0297C45.2279 12.465 44.0762 7.14839 40.6727 3.6998C36.7581 -0.258718 31.079 -1.03698 26.5139 1.76933C24.4537 3.04619 23.4979 4.1797 21.747 7.47703L20.438 9.92663L17.7105 8.58C15.535 7.5094 14.7758 7.1892 13.9712 7.01595C11.4083 6.45558 8.64392 6.82064 6.3745 8.00986Z" fill="url(#paint0_linear)" fill-opacity="0.9"/>
<defs>
<linearGradient id="paint0_linear" x1="30.5098" y1="42.3937" x2="18.2492" y2="4.04741" gradientUnits="userSpaceOnUse">
<stop stop-color="#DE7987"/>
<stop offset="1" stop-color="#E4678C"/>
</linearGradient>
</defs>
</svg>
