<svg width="63" height="61" viewBox="0 0 63 61" fill="none" xmlns="http://www.w3.org/2000/svg">
<path d="M53.2692 11.8679C56.1359 13.3727 58.3279 15.5598 59.935 18.5507C63.1754 24.6028 62.6404 31.9713 58.5555 37.57C56.9479 39.7654 55.1497 41.3423 52.7871 42.6305C48.4673 44.9804 19.5127 60.1217 19.4111 60.0893C19.1644 60.0104 1.63121 25.8718 1.1265 24.5184C-1.22336 18.1162 0.39187 10.6596 5.16537 5.82294C10.6557 0.27105 18.6207 -0.820472 25.0233 3.11543C27.9128 4.90625 29.2534 6.49601 31.709 11.1206L33.5449 14.5562L37.3703 12.6675C40.4214 11.166 41.4863 10.7169 42.6147 10.4739C46.2092 9.68797 50.0863 10.2 53.2692 11.8679Z" fill="url(#paint0_linear)" fill-opacity="0.9"/>
<defs>
<linearGradient id="paint0_linear" x1="19.4191" y1="60.0918" x2="36.6147" y2="6.31047" gradientUnits="userSpaceOnUse">
<stop stop-color="#CCD48A"/>
<stop offset="1" stop-color="#728D5E"/>
</linearGradient>
</defs>
</svg>
