<svg width="49" height="49" viewBox="0 0 49 49" fill="none" xmlns="http://www.w3.org/2000/svg">
<path d="M27.5139 2.06901C29.9023 0.773597 32.4511 0.267254 35.2871 0.544172C41.0202 1.11268 45.9073 4.92816 47.9019 10.3917C48.6814 12.538 48.9406 14.5285 48.7349 16.7774C48.3549 20.8868 45.3832 48.1465 45.3131 48.2022C45.1428 48.3373 13.1516 44.6111 11.9722 44.3307C6.41113 42.9778 1.96739 38.3681 0.825646 32.7805C-0.479801 26.3591 2.48046 20.2963 8.2157 17.6715C10.8141 16.4938 12.5488 16.3019 16.92 16.7506L20.1729 17.0759L20.6434 13.5265C21.0221 10.698 21.2065 9.74577 21.5643 8.84555C22.6957 5.97247 24.8641 3.50874 27.5139 2.06901Z" fill="url(#paint0_linear)" fill-opacity="0.9"/>
<defs>
<linearGradient id="paint0_linear" x1="45.3186" y1="48.1978" x2="15.8586" y2="11.0833" gradientUnits="userSpaceOnUse">
<stop stop-color="#F2DAA6"/>
<stop offset="1" stop-color="#F1C25C"/>
</linearGradient>
</defs>
</svg>
