<svg width="76" height="73" viewBox="0 0 76 73" fill="none" xmlns="http://www.w3.org/2000/svg">
<path d="M64.5367 13.8969C67.9992 15.7146 70.6467 18.3562 72.5879 21.9688C76.5018 29.2787 75.8557 38.1787 70.9216 44.941C68.98 47.5926 66.808 49.4974 63.9544 51.0533C58.7368 53.8916 23.7643 72.1798 23.6416 72.1406C23.3436 72.0453 2.16631 30.8114 1.5567 29.1767C-1.28155 21.444 0.669381 12.4376 6.43501 6.59563C13.0664 -0.11017 22.6868 -1.42855 30.4202 3.32538C33.9102 5.4884 35.5295 7.40858 38.4954 12.9943L40.7129 17.144L45.3334 14.8628C49.0186 13.0492 50.3048 12.5067 51.6678 12.2132C56.0093 11.264 60.6923 11.8824 64.5367 13.8969Z" fill="url(#paint0_linear)" fill-opacity="0.9"/>
<defs>
<linearGradient id="paint0_linear" x1="23.6512" y1="72.1437" x2="44.4208" y2="7.18448" gradientUnits="userSpaceOnUse">
<stop stop-color="#CCC269"/>
<stop offset="1" stop-color="#A18B2F"/>
</linearGradient>
</defs>
</svg>
