<svg width="51" height="49" viewBox="0 0 51 49" fill="none" xmlns="http://www.w3.org/2000/svg">
<path d="M7.2674 9.22077C4.91952 10.4533 3.12422 12.2446 1.8079 14.6943C-0.846057 19.6511 -0.407937 25.6862 2.93781 30.2717C4.25441 32.0697 5.72723 33.3613 7.66227 34.4164C11.2003 36.341 34.9151 48.7423 34.9983 48.7157C35.2003 48.6511 49.5606 20.6905 49.974 19.5819C51.8986 14.3384 50.5757 8.23119 46.666 4.26977C42.1693 -0.277415 35.6457 -1.17141 30.4017 2.05222C28.0352 3.51897 26.9371 4.82103 24.926 8.6087L23.4223 11.4226L20.2891 9.87569C17.7902 8.64589 16.918 8.27807 15.9938 8.07906C13.0498 7.43535 9.8743 7.8547 7.2674 9.22077Z" fill="url(#paint0_linear)" fill-opacity="0.9"/>
<defs>
<linearGradient id="paint0_linear" x1="34.9918" y1="48.7178" x2="20.908" y2="4.66907" gradientUnits="userSpaceOnUse">
<stop stop-color="#DE7987"/>
<stop offset="1" stop-color="#E4678C"/>
</linearGradient>
</defs>
</svg>
