<svg width="81" height="79" viewBox="0 0 81 79" fill="none" xmlns="http://www.w3.org/2000/svg">
<path d="M71.8144 21.4321C75.3112 23.8977 77.8066 27.1409 79.3972 31.3367C82.6004 39.8247 80.6303 49.3873 74.3135 56.0194C71.8291 58.6189 69.2012 60.3755 65.8837 61.6564C59.8189 63.9913 19.2725 78.8429 19.145 78.7828C18.8354 78.637 1.74261 30.8862 1.31445 29.0259C-0.661711 20.2327 2.73909 10.7408 9.82679 5.22564C17.9769 -1.1031 28.6012 -1.16129 36.3124 5.09866C39.7899 7.94283 41.2726 10.2568 43.6934 16.7392L45.5072 21.557L50.8449 19.7412C55.1013 18.2994 56.5739 17.8944 58.0943 17.7704C62.9394 17.3598 67.9312 18.6985 71.8144 21.4321Z" fill="url(#paint0_linear)" fill-opacity="0.9"/>
<defs>
<linearGradient id="paint0_linear" x1="19.155" y1="78.7875" x2="50.9498" y2="11.2817" gradientUnits="userSpaceOnUse">
<stop stop-color="#DE7987"/>
<stop offset="1" stop-color="#E4678C"/>
</linearGradient>
</defs>
</svg>
