<svg width="100" height="96" viewBox="0 0 100 96" fill="none" xmlns="http://www.w3.org/2000/svg">
<path d="M14.5483 18.1588C9.95055 20.5724 6.43489 24.0802 3.85721 28.8773C-1.33991 38.584 -0.481961 50.4022 6.06985 59.3818C8.64809 62.9028 11.5322 65.4321 15.3215 67.4982C22.2499 71.2671 68.6894 95.5518 68.8523 95.4997C69.248 95.3732 97.3691 40.6193 98.1786 38.4486C101.947 28.1804 99.3568 16.221 91.7007 8.4635C82.895 -0.441029 70.1202 -2.19169 59.8511 4.12099C55.2168 6.99324 53.0666 9.54301 49.1282 16.9602L46.1836 22.4705L40.0481 19.4413C35.1545 17.033 33.4466 16.3128 31.6367 15.923C25.8717 14.6625 19.6532 15.4837 14.5483 18.1588Z" fill="url(#paint0_linear)" fill-opacity="0.9"/>
<defs>
<linearGradient id="paint0_linear" x1="68.8396" y1="95.5038" x2="41.26" y2="9.24543" gradientUnits="userSpaceOnUse">
<stop stop-color="#CCC269"/>
<stop offset="1" stop-color="#A18B2F"/>
</linearGradient>
</defs>
</svg>
