<svg width="108" height="108" viewBox="0 0 108 108" fill="none" xmlns="http://www.w3.org/2000/svg">
<path d="M100.206 48.8357C104.08 53.5155 106.294 58.8881 106.917 65.2289C108.155 78.051 101.911 90.4198 90.8005 97.1553C86.4341 99.7923 82.184 101.221 77.1658 101.741C67.9944 102.682 6.9603 107.938 6.80796 107.809C6.438 107.494 0.740042 35.7057 0.843642 32.9974C1.39861 20.2139 9.57612 8.47454 21.3277 3.55636C34.836 -2.08111 49.4069 1.79391 57.6454 13.2413C61.3528 18.4327 62.5251 22.1551 63.4361 31.938L64.1331 39.2142L72.1162 38.7133C78.4798 38.3221 80.6467 38.3154 82.7748 38.7114C89.5622 39.9524 95.9018 43.6448 100.206 48.8357Z" fill="url(#paint0_linear)" fill-opacity="0.9"/>
<defs>
<linearGradient id="paint0_linear" x1="6.81988" y1="107.819" x2="75.4653" y2="27.2194" gradientUnits="userSpaceOnUse">
<stop stop-color="#CCD48A"/>
<stop offset="1" stop-color="#728D5E"/>
</linearGradient>
</defs>
</svg>
