<svg width="132" height="130" viewBox="0 0 132 130" fill="none" xmlns="http://www.w3.org/2000/svg">
<path d="M13.8464 40.6393C8.32874 45.0939 4.5512 50.7267 2.37263 57.8374C-2.01051 72.2207 2.27833 87.8239 13.4403 98.112C17.8294 102.144 22.3648 104.766 27.9896 106.526C38.2717 109.735 106.931 129.928 107.136 129.815C107.632 129.541 130.756 48.7245 131.264 45.6016C133.584 30.8456 126.937 15.5135 114.62 7.15591C100.459 -2.43286 82.8816 -1.38425 70.8026 9.79995C65.3578 14.8786 63.1549 18.8654 59.8496 29.8474L57.3691 38.0109L48.3454 35.5831C41.1505 33.6571 38.6713 33.146 36.1434 33.1047C28.0859 32.9477 19.9742 35.6997 13.8464 40.6393Z" fill="url(#paint0_linear)" fill-opacity="0.9"/>
<defs>
<linearGradient id="paint0_linear" x1="107.12" y1="129.824" x2="47.2603" y2="21.6032" gradientUnits="userSpaceOnUse">
<stop stop-color="#F2DAA6"/>
<stop offset="1" stop-color="#F1C25C"/>
</linearGradient>
</defs>
</svg>
