<?xml version="1.0" standalone="no"?>
<!DOCTYPE svg PUBLIC "-//W3C//DTD SVG 20010904//EN"
 "http://www.w3.org/TR/2001/REC-SVG-20010904/DTD/svg10.dtd">
<svg version="1.0" xmlns="http://www.w3.org/2000/svg"
 width="1254.000000pt" height="608.000000pt" viewBox="0 0 1254.000000 608.000000"
 preserveAspectRatio="xMidYMid meet">

<g transform="translate(0.000000,608.000000) scale(0.100000,-0.100000)"
fill="#000000" stroke="none">
<path d="M10643 5333 c-13 -2 -23 -9 -23 -14 0 -5 -11 -9 -25 -9 -14 0 -30 -9
-37 -20 -7 -11 -18 -20 -25 -20 -7 0 -13 -5 -13 -10 0 -6 -11 -21 -24 -33 -14
-13 -28 -35 -31 -50 -4 -15 -11 -27 -15 -27 -4 0 -11 -16 -14 -35 -4 -19 -11
-35 -16 -35 -5 0 -12 -20 -16 -45 -3 -26 -12 -52 -19 -59 -7 -7 -16 -31 -20
-54 -4 -23 -10 -42 -15 -42 -4 0 -11 -20 -14 -45 -4 -25 -11 -45 -16 -45 -5 0
-12 -20 -16 -45 -3 -25 -10 -45 -14 -45 -5 0 -11 -18 -15 -40 -4 -22 -10 -40
-14 -40 -4 0 -13 -29 -20 -65 -7 -36 -17 -65 -21 -65 -4 0 -11 -20 -14 -45 -4
-25 -11 -45 -15 -45 -5 0 -12 -20 -15 -45 -4 -25 -11 -45 -16 -45 -5 0 -12
-20 -16 -45 -3 -25 -10 -45 -14 -45 -5 0 -11 -18 -15 -40 -4 -22 -10 -40 -14
-40 -4 0 -13 -29 -20 -65 -7 -36 -17 -65 -21 -65 -5 0 -12 -25 -15 -55 -4 -30
-11 -55 -15 -55 -5 0 -11 -18 -15 -40 -4 -22 -10 -40 -15 -40 -4 0 -11 -20
-14 -45 -4 -25 -11 -45 -16 -45 -5 0 -12 -20 -16 -45 -3 -25 -10 -45 -14 -45
-4 0 -13 -29 -20 -65 -7 -36 -16 -65 -21 -65 -4 0 -11 -20 -15 -45 -3 -25 -10
-45 -14 -45 -5 0 -11 -22 -15 -50 -4 -27 -11 -50 -15 -50 -5 0 -12 -20 -16
-45 -3 -25 -10 -45 -14 -45 -4 0 -14 -29 -21 -65 -7 -36 -16 -65 -20 -65 -4 0
-10 -18 -14 -40 -4 -22 -10 -40 -15 -40 -4 0 -11 -20 -14 -45 -4 -25 -11 -45
-16 -45 -5 0 -12 -20 -16 -45 -3 -25 -10 -45 -14 -45 -4 0 -11 -16 -14 -35 -4
-19 -11 -35 -15 -35 -5 0 -14 -29 -21 -65 -7 -36 -16 -65 -20 -65 -4 0 -11
-20 -14 -45 -4 -25 -11 -45 -17 -45 -5 0 -9 -6 -9 -14 0 -10 -25 -15 -95 -19
-130 -7 -139 -16 -133 -130 3 -60 9 -89 20 -101 15 -14 63 -16 432 -16 231 0
416 4 416 9 0 5 13 11 29 14 25 5 31 13 37 43 8 46 -2 148 -16 152 -5 2 -10
10 -10 18 0 11 -20 14 -100 14 l-100 0 0 25 c0 14 4 25 8 25 5 0 14 41 21 90
7 50 16 90 21 90 4 0 11 32 14 70 4 39 11 70 16 70 5 0 12 23 16 50 4 28 10
50 14 50 4 0 11 25 15 55 3 30 10 55 15 55 5 0 12 25 15 55 4 30 11 55 16 55
5 0 9 11 9 25 l0 25 503 -2 502 -3 3 -22 c2 -13 7 -23 12 -23 5 0 12 -25 15
-55 4 -30 11 -55 15 -55 5 0 11 -18 15 -40 4 -22 10 -40 15 -40 4 0 11 -25 15
-55 3 -30 10 -55 15 -55 4 0 13 -36 21 -80 7 -44 16 -80 20 -80 5 0 11 -22 15
-50 4 -27 10 -50 14 -50 4 0 11 -25 15 -55 3 -30 11 -55 16 -55 5 0 9 -4 9 -9
0 -4 -40 -11 -90 -14 -125 -8 -134 -17 -128 -130 3 -60 9 -89 20 -101 15 -14
67 -16 482 -16 304 0 466 3 466 10 0 6 10 10 23 10 39 0 57 33 57 105 0 36 -4
65 -9 65 -5 0 -11 12 -13 28 l-3 27 -94 3 c-90 3 -121 13 -121 41 0 5 -6 16
-13 23 -7 7 -19 39 -26 71 -7 31 -16 57 -21 57 -5 0 -12 20 -16 45 -3 25 -10
45 -15 45 -4 0 -11 16 -15 35 -3 19 -10 35 -15 35 -4 0 -11 20 -15 45 -3 25
-10 45 -15 45 -4 0 -11 16 -15 35 -3 19 -10 35 -14 35 -4 0 -13 29 -20 65 -7
36 -16 65 -21 65 -4 0 -11 16 -15 35 -3 19 -10 35 -14 35 -4 0 -11 20 -14 45
-4 25 -11 45 -15 45 -5 0 -12 20 -15 45 -4 25 -11 45 -16 45 -5 0 -12 16 -16
35 -3 19 -9 35 -13 35 -4 0 -13 29 -20 65 -7 36 -17 65 -21 65 -4 0 -11 20
-14 45 -4 25 -11 45 -16 45 -5 0 -12 20 -16 45 -3 25 -10 45 -14 45 -4 0 -11
16 -14 35 -4 19 -11 35 -16 35 -5 0 -12 20 -16 45 -3 25 -10 45 -14 45 -4 0
-14 29 -21 65 -7 36 -16 65 -20 65 -4 0 -11 20 -15 45 -3 25 -10 45 -14 45 -5
0 -11 18 -15 40 -4 22 -10 40 -15 40 -4 0 -11 20 -14 45 -4 25 -11 45 -16 45
-5 0 -12 20 -16 45 -3 25 -10 45 -14 45 -5 0 -14 25 -21 55 -7 30 -15 55 -19
55 -4 0 -11 20 -14 45 -4 25 -11 45 -16 45 -5 0 -12 20 -16 45 -3 25 -10 45
-14 45 -5 0 -11 19 -15 42 -4 23 -14 48 -21 56 -8 7 -14 24 -14 38 0 13 -4 24
-9 24 -5 0 -14 29 -21 65 -7 36 -16 65 -21 65 -4 0 -11 16 -15 35 -3 19 -10
35 -15 35 -5 0 -9 11 -9 24 0 14 -6 31 -14 38 -7 8 -17 33 -21 56 -4 23 -11
42 -15 42 -5 0 -11 14 -15 30 -4 17 -11 30 -16 30 -5 0 -9 6 -9 14 0 8 -7 17
-16 20 -17 7 -356 6 -391 -1z m87 -534 c0 -10 4 -19 10 -19 5 0 13 -18 16 -40
4 -22 10 -40 14 -40 5 0 11 -18 15 -40 4 -22 10 -40 15 -40 4 0 10 -18 14 -40
3 -22 10 -40 15 -40 5 0 12 -18 16 -40 4 -22 10 -40 15 -40 4 0 13 -34 21 -75
7 -41 16 -75 20 -75 4 0 11 -20 15 -45 3 -25 10 -45 14 -45 5 0 11 -18 15 -40
4 -22 10 -40 15 -40 4 0 11 -20 14 -45 4 -25 11 -45 16 -45 5 0 12 -20 16 -45
3 -25 10 -45 14 -45 5 0 14 -31 20 -70 6 -38 15 -70 20 -70 4 0 11 -20 14 -45
4 -25 11 -45 16 -45 4 0 11 -19 15 -42 4 -24 11 -45 15 -48 4 -3 10 -24 14
-47 l6 -43 -415 0 c-362 0 -415 2 -415 15 0 8 4 15 9 15 5 0 13 25 16 55 4 30
11 55 15 55 5 0 11 18 15 40 4 22 10 40 14 40 4 0 14 36 21 80 7 44 17 80 21
80 4 0 10 20 13 45 4 25 11 45 15 45 5 0 11 23 15 50 4 28 10 50 15 50 5 0 11
23 15 50 4 28 11 50 15 50 5 0 12 20 15 45 4 25 11 45 15 45 4 0 13 34 20 75
8 41 17 75 21 75 5 0 11 23 15 50 4 28 11 50 15 50 5 0 12 20 16 45 3 25 10
45 14 45 5 0 11 18 15 40 4 22 10 40 15 40 4 0 10 16 13 35 9 55 47 83 47 34z"/>
<path d="M88 5303 c-22 -6 -32 -58 -25 -134 7 -81 18 -89 116 -89 65 0 81 -3
81 -15 0 -8 4 -15 9 -15 5 0 12 -16 15 -35 4 -19 11 -35 15 -35 5 0 12 -16 15
-35 4 -19 11 -35 15 -35 5 0 12 -20 15 -45 4 -25 11 -45 16 -45 5 0 15 -27 22
-60 6 -33 15 -60 19 -60 4 0 10 -16 13 -35 4 -19 11 -35 16 -35 5 0 12 -20 16
-45 3 -25 10 -45 14 -45 5 0 11 -18 15 -40 4 -22 10 -40 15 -40 4 0 11 -20 14
-45 4 -25 11 -45 15 -45 5 0 14 -29 21 -65 7 -36 16 -65 20 -65 4 0 11 -20 14
-45 4 -25 11 -45 16 -45 5 0 12 -20 16 -45 3 -25 10 -45 14 -45 5 0 11 -18 15
-40 4 -22 10 -40 15 -40 4 0 11 -20 14 -45 4 -25 11 -45 15 -45 5 0 14 -29 21
-65 7 -36 16 -65 20 -65 4 0 11 -20 14 -45 4 -25 11 -45 16 -45 5 0 12 -20 16
-45 3 -25 10 -45 14 -45 5 0 11 -18 15 -40 4 -22 11 -40 15 -40 5 0 12 -25 15
-55 4 -30 11 -55 15 -55 4 0 14 -29 21 -65 7 -36 16 -65 20 -65 4 0 10 -18 14
-40 4 -22 10 -40 15 -40 4 0 11 -20 14 -45 4 -25 11 -45 16 -45 5 0 12 -20 16
-45 3 -25 10 -45 15 -45 4 0 11 -20 15 -45 3 -25 10 -45 14 -45 4 0 14 -29 21
-65 7 -36 16 -65 20 -65 4 0 10 -18 14 -40 4 -22 10 -40 15 -40 4 0 11 -20 14
-45 4 -25 11 -45 16 -45 5 0 12 -20 16 -45 3 -25 10 -45 15 -45 4 0 11 -20 15
-45 3 -25 10 -45 14 -45 4 0 13 -25 20 -55 7 -30 17 -55 21 -55 4 0 10 -13 14
-29 5 -25 12 -29 52 -35 123 -17 433 0 433 24 0 4 11 11 25 14 14 4 25 11 25
16 0 6 6 10 13 10 16 0 40 28 58 68 8 18 17 32 20 32 4 0 10 16 13 35 4 19 11
35 15 35 5 0 11 18 15 40 3 22 10 40 15 40 5 0 12 18 16 40 4 22 10 40 15 40
4 0 11 20 14 45 4 25 11 45 16 45 5 0 15 27 22 60 6 33 15 60 19 60 4 0 10 18
14 40 4 22 10 40 15 40 4 0 11 20 14 45 4 25 11 45 16 45 5 0 12 23 16 50 4
28 10 50 14 50 4 0 11 20 14 45 4 25 11 45 15 45 5 0 14 29 21 65 7 36 16 65
21 65 4 0 11 20 15 45 3 25 10 45 14 45 4 0 10 23 14 50 4 28 11 50 16 50 5 0
12 20 16 45 3 25 10 45 14 45 5 0 11 18 15 40 4 22 10 40 14 40 4 0 13 34 20
75 7 41 16 75 21 75 5 0 12 20 16 45 3 25 10 45 14 45 4 0 10 23 14 50 4 28
11 50 15 50 5 0 12 19 16 43 4 23 11 44 16 47 4 3 14 36 21 73 7 37 16 67 19
67 4 0 10 20 13 45 4 25 11 45 16 45 5 0 12 20 16 45 3 25 10 45 15 45 4 0 11
23 15 50 4 28 10 50 15 50 4 0 11 20 15 45 3 25 10 45 14 45 4 0 14 29 21 65
7 36 16 65 20 65 4 0 10 18 14 40 4 22 10 40 15 40 4 0 11 25 15 55 3 30 10
55 15 55 4 0 11 18 15 40 4 22 11 40 16 40 5 0 9 7 9 15 0 12 16 15 80 15 47
0 80 4 80 10 0 6 7 10 15 10 8 0 17 14 21 36 9 51 -2 155 -18 165 -17 11 -884
7 -895 -4 -4 -5 -8 -48 -8 -96 0 -116 5 -121 124 -121 l91 0 0 -35 c0 -19 -4
-35 -9 -35 -4 0 -12 -36 -15 -80 -4 -44 -11 -80 -15 -80 -4 0 -13 -44 -20 -97
-6 -54 -15 -100 -20 -103 -5 -3 -12 -35 -15 -72 -4 -38 -11 -68 -16 -68 -5 0
-12 -25 -15 -55 -4 -30 -11 -55 -15 -55 -4 0 -11 -27 -15 -60 -4 -33 -11 -60
-15 -60 -4 0 -11 -25 -15 -55 -3 -30 -10 -55 -14 -55 -5 0 -14 -40 -21 -90 -7
-49 -17 -90 -21 -90 -5 0 -11 -22 -15 -50 -4 -27 -10 -50 -14 -50 -4 0 -10
-22 -14 -50 -4 -27 -11 -50 -15 -50 -5 0 -12 -27 -16 -60 -4 -33 -10 -60 -15
-60 -4 0 -10 -22 -14 -50 -4 -27 -10 -50 -15 -50 -4 0 -14 -36 -21 -80 -7 -44
-17 -80 -20 -80 -4 0 -10 -22 -14 -50 -4 -27 -10 -50 -15 -50 -5 0 -11 -22
-15 -50 -4 -27 -11 -50 -15 -50 -5 0 -12 -25 -16 -55 -3 -30 -10 -55 -15 -55
-4 0 -11 -22 -15 -50 -4 -27 -11 -50 -15 -50 -5 0 -14 -31 -20 -70 -6 -38 -15
-70 -20 -70 -4 0 -10 -18 -14 -40 -3 -22 -11 -40 -16 -40 -6 0 -10 -7 -10 -15
0 -8 -7 -15 -15 -15 -10 0 -17 14 -21 40 -4 22 -10 40 -14 40 -4 0 -11 16 -14
35 -4 19 -11 35 -15 35 -5 0 -14 29 -21 65 -7 36 -16 65 -21 65 -4 0 -11 20
-15 45 -3 25 -10 45 -14 45 -4 0 -10 23 -14 50 -4 28 -11 50 -16 50 -5 0 -12
20 -16 45 -3 25 -10 45 -14 45 -5 0 -11 18 -15 40 -4 22 -10 40 -14 40 -4 0
-13 34 -20 75 -7 41 -16 75 -21 75 -5 0 -12 23 -16 50 -4 28 -10 50 -14 50 -4
0 -11 20 -14 45 -4 25 -11 45 -16 45 -5 0 -12 23 -16 50 -4 28 -10 50 -15 50
-4 0 -11 20 -15 45 -3 25 -9 45 -13 45 -3 0 -12 30 -19 67 -7 37 -17 70 -22
73 -5 3 -12 29 -16 58 -3 28 -10 52 -15 52 -5 0 -11 23 -15 50 -4 28 -10 50
-14 50 -5 0 -11 18 -15 40 -4 22 -10 40 -15 40 -4 0 -11 25 -15 55 -3 30 -10
55 -14 55 -4 0 -13 32 -20 70 -7 39 -16 70 -21 70 -4 0 -11 27 -15 60 -4 33
-11 60 -16 60 -4 0 -11 23 -15 50 -4 28 -10 50 -15 50 -5 0 -11 23 -15 50 -4
28 -10 50 -14 50 -5 0 -11 27 -15 60 -4 33 -11 60 -16 60 -5 0 -9 9 -9 20 0
18 7 20 80 20 44 0 80 4 80 9 0 5 11 12 25 15 24 6 25 9 25 86 0 47 -4 80 -10
80 -5 0 -10 9 -10 20 0 20 -6 20 -477 19 -263 -1 -486 -3 -495 -6z"/>
<path d="M3196 5286 c-22 -20 -26 -32 -26 -80 0 -31 5 -56 10 -56 6 0 10 -9
10 -19 0 -50 4 -51 149 -51 l138 0 6 -307 c9 -396 9 -1447 0 -1900 l-6 -353
-92 0 c-142 0 -184 -8 -191 -36 -4 -13 -10 -24 -15 -24 -5 0 -9 -25 -9 -55 0
-30 4 -55 9 -55 5 0 11 -18 15 -40 l6 -40 515 0 c337 0 515 3 515 10 0 6 12
10 26 10 17 0 28 6 31 20 3 11 9 20 14 20 5 0 9 23 9 50 0 28 -4 50 -10 50 -5
0 -10 10 -10 23 0 12 -3 32 -6 45 -6 21 -10 22 -144 22 l-137 0 -6 308 c-9
396 -9 1753 0 2035 l6 217 123 0 c103 0 127 3 144 17 11 10 20 23 20 30 0 7 5
13 10 13 6 0 10 23 10 50 0 28 -4 50 -10 50 -5 0 -10 9 -10 19 0 54 31 51
-541 51 l-528 0 -25 -24z"/>
<path d="M4766 5286 c-22 -20 -26 -32 -26 -80 0 -31 5 -56 10 -56 6 0 10 -9
10 -19 0 -49 6 -51 126 -51 l114 0 0 -95 c0 -57 4 -95 10 -95 7 0 10 -375 10
-1105 0 -730 -3 -1105 -10 -1105 -6 0 -10 -35 -10 -85 l0 -85 -105 0 c-63 0
-105 -4 -105 -10 0 -5 -7 -10 -15 -10 -8 0 -15 -7 -15 -15 0 -8 -4 -15 -10
-15 -5 0 -10 -25 -10 -55 0 -30 4 -55 9 -55 5 0 11 -18 15 -40 l6 -40 930 0
c517 0 930 4 930 9 0 4 32 11 72 13 40 3 74 11 76 17 2 6 9 11 15 11 15 0 57
44 57 58 0 6 5 12 12 14 15 5 15 187 1 197 -6 3 -13 23 -17 44 -4 20 -11 37
-15 37 -5 0 -11 14 -14 30 -6 27 -37 45 -37 21 0 -6 -20 -13 -45 -17 -25 -3
-45 -10 -45 -15 0 -4 -22 -11 -50 -15 -27 -4 -50 -10 -50 -14 0 -5 -33 -11
-72 -15 -40 -4 -75 -11 -78 -16 -3 -4 -44 -11 -90 -15 -47 -4 -87 -11 -91 -15
-3 -5 -164 -14 -358 -20 -299 -10 -355 -10 -362 2 -10 16 -12 2440 -3 2477 6
21 10 22 130 22 76 0 124 4 124 10 0 6 7 10 15 10 8 0 17 14 21 36 9 51 -2
155 -18 165 -7 5 -239 9 -515 9 l-502 0 -25 -24z"/>
<path d="M7168 5299 c-18 -7 -29 -20 -33 -40 -8 -36 3 -129 16 -129 5 0 9 -11
9 -25 l0 -25 114 0 113 0 7 -46 c8 -59 8 -2471 0 -2501 -6 -22 -11 -23 -110
-23 -95 0 -106 -2 -126 -22 -20 -20 -23 -33 -22 -93 1 -40 7 -71 13 -73 6 -2
11 -15 11 -28 l0 -24 930 0 c515 0 930 4 930 9 0 4 30 11 66 14 37 3 69 10 73
15 3 6 19 14 34 17 15 4 27 12 27 17 0 5 7 16 15 24 8 9 15 24 15 35 0 10 5
19 10 19 6 0 10 28 10 65 0 36 -4 65 -9 65 -5 0 -11 23 -15 50 -4 28 -11 50
-15 50 -5 0 -12 12 -15 26 -8 29 -29 54 -45 54 -6 0 -11 -4 -11 -9 0 -5 -18
-12 -40 -16 -22 -4 -40 -10 -40 -15 0 -4 -22 -11 -50 -15 -27 -4 -50 -11 -50
-15 0 -5 -31 -12 -70 -16 -38 -3 -70 -10 -70 -14 0 -5 -39 -11 -87 -15 -49 -4
-90 -11 -93 -16 -5 -7 -499 -28 -672 -29 l-58 0 0 80 c0 47 -4 80 -10 80 -7 0
-10 372 -10 1095 0 723 3 1095 10 1095 6 0 10 33 10 80 l0 80 121 0 c90 0 124
4 135 14 7 8 19 16 26 18 19 7 14 163 -6 183 -13 13 -84 15 -513 14 -299 0
-509 -5 -525 -10z"/>
<path d="M60 815 l0 -805 6210 0 6210 0 0 805 0 805 -6210 0 -6210 0 0 -805z
m680 290 c0 -91 3 -165 8 -165 4 0 15 8 23 18 48 52 61 57 155 57 73 0 94 -3
108 -17 10 -10 24 -18 32 -18 8 0 14 -6 14 -13 0 -7 9 -20 20 -30 11 -9 20
-25 20 -36 0 -11 6 -21 13 -24 16 -5 17 -234 1 -245 -6 -4 -15 -18 -19 -31 -8
-27 -63 -81 -81 -81 -7 0 -14 -5 -16 -11 -2 -5 -22 -13 -46 -16 -23 -3 -42
-10 -42 -14 0 -5 -9 -9 -20 -9 -11 0 -20 4 -20 9 0 4 -17 11 -39 14 -27 3 -50
16 -77 43 l-39 37 -3 -41 c-3 -39 -5 -42 -32 -42 -15 0 -35 3 -44 6 -17 7 -22
34 -6 34 6 0 10 130 10 370 l0 370 40 0 40 0 0 -165z m3522 36 c37 -5 73 -14
80 -20 76 -65 73 -59 73 -146 0 -79 -1 -82 -35 -116 -19 -20 -43 -39 -52 -42
-20 -7 -24 -27 -7 -27 22 0 61 -54 67 -92 2 -21 8 -38 12 -38 5 0 11 -27 15
-60 4 -33 10 -60 15 -60 4 0 10 -11 13 -25 4 -25 3 -26 -42 -23 l-46 3 -9 50
c-6 28 -13 52 -16 55 -4 3 -10 25 -13 49 -3 24 -10 47 -15 50 -5 3 -13 16 -16
29 -5 15 -18 25 -37 29 -16 3 -29 9 -29 14 0 5 -27 9 -60 9 l-60 0 0 -146 0
-145 -37 3 -38 3 0 320 0 320 55 6 c86 9 110 9 182 0z m1088 -2 c27 -6 50 -15
50 -20 0 -5 -4 -9 -10 -9 -5 0 -10 -8 -10 -18 0 -16 -11 -18 -127 -17 -92 0
-127 -3 -130 -12 -3 -7 -9 -13 -15 -13 -13 0 -88 -75 -88 -88 0 -6 -6 -12 -12
-14 -17 -6 -18 -245 -2 -256 6 -4 15 -18 19 -31 8 -28 52 -71 71 -71 7 0 14
-5 16 -11 2 -6 25 -13 51 -16 26 -3 47 -10 47 -14 0 -12 57 -12 62 -1 2 5 27
12 56 15 l52 6 0 -33 c0 -29 -4 -34 -31 -40 -17 -3 -49 -6 -70 -6 -22 0 -39
-4 -39 -10 0 -5 -7 -10 -15 -10 -8 0 -15 4 -15 9 0 4 -28 11 -61 14 -34 3 -65
10 -68 15 -3 5 -23 15 -43 21 -21 7 -38 16 -38 21 0 4 -11 18 -25 31 -13 13
-25 30 -25 37 0 6 -4 12 -9 12 -5 0 -13 15 -16 33 -4 17 -12 35 -17 38 -14 9
-13 212 1 217 6 2 11 14 11 26 0 13 9 33 20 46 11 13 20 27 20 31 0 17 68 78
94 85 14 3 26 10 26 14 0 25 183 38 270 19z m878 -1 c33 -8 61 -25 94 -58 27
-26 48 -52 48 -59 0 -6 4 -11 9 -11 5 0 12 -12 16 -27 3 -15 12 -31 18 -35 16
-10 16 -246 0 -256 -6 -4 -15 -20 -18 -35 -4 -15 -11 -27 -16 -27 -5 0 -9 -5
-9 -12 0 -10 -54 -64 -103 -105 -9 -7 -38 -15 -66 -19 -28 -4 -51 -10 -51 -15
0 -5 -11 -9 -25 -9 -14 0 -25 4 -25 9 0 5 -23 11 -51 13 -28 3 -54 10 -58 15
-3 5 -21 16 -39 24 -18 8 -35 24 -38 36 -3 12 -12 24 -20 27 -8 3 -14 12 -14
21 0 8 -4 15 -9 15 -5 0 -13 15 -16 33 -4 17 -12 35 -18 39 -15 9 -14 211 1
216 7 2 12 14 12 27 0 13 6 30 14 37 7 8 17 24 20 36 4 12 12 22 17 22 5 0 9
7 9 15 0 9 8 19 17 22 10 4 27 17 38 29 36 39 171 55 263 32z m927 2 c38 -5
71 -13 73 -19 2 -6 9 -11 16 -11 18 0 46 -38 53 -71 3 -16 9 -29 14 -29 5 0 9
-9 9 -20 0 -11 -4 -20 -9 -20 -4 0 -11 -15 -14 -34 -6 -40 -35 -73 -72 -82
-33 -8 -32 -20 2 -29 15 -3 43 -23 63 -43 34 -36 35 -38 35 -118 -1 -80 -1
-82 -35 -113 -19 -17 -42 -31 -51 -31 -10 0 -19 -6 -21 -12 -3 -9 -47 -14
-151 -16 l-147 -4 0 325 0 326 58 4 c31 2 68 4 82 5 14 1 56 -3 95 -8z m4756
-1 c43 -9 62 -21 100 -60 26 -27 51 -59 55 -71 4 -13 11 -26 16 -29 6 -4 13
-27 15 -53 3 -25 10 -46 14 -46 5 0 9 -27 9 -60 0 -33 -4 -60 -9 -60 -4 0 -11
-21 -14 -46 -2 -26 -9 -49 -15 -53 -5 -3 -13 -16 -17 -29 -9 -29 -91 -112
-110 -112 -8 0 -15 -4 -15 -10 0 -5 -22 -12 -50 -16 -27 -4 -50 -10 -50 -15 0
-5 -13 -9 -30 -9 -16 0 -30 4 -30 9 0 4 -21 11 -46 14 -26 2 -49 9 -53 13 -3
5 -19 16 -36 24 -37 18 -55 35 -55 50 0 6 -6 13 -14 16 -8 3 -17 17 -21 32 -4
15 -11 29 -16 32 -4 3 -13 39 -19 80 -12 85 2 213 26 237 8 8 14 21 14 29 0 8
4 14 10 14 5 0 12 11 16 25 3 13 15 27 27 31 11 3 30 16 41 29 38 41 154 56
257 34z m-8583 -31 c2 -16 7 -28 12 -28 5 0 12 -20 16 -45 3 -25 10 -45 14
-45 4 0 14 -29 21 -65 7 -36 16 -65 20 -65 4 0 10 -18 14 -40 4 -22 10 -40 15
-40 4 0 11 -20 14 -45 4 -25 11 -45 16 -45 5 0 12 -20 16 -45 3 -25 10 -45 14
-45 5 0 11 -18 15 -40 4 -22 11 -40 16 -40 5 0 9 -7 9 -15 0 -11 -12 -15 -45
-15 -33 0 -45 4 -45 15 0 8 -4 15 -9 15 -5 0 -12 18 -16 40 -4 22 -10 40 -15
40 -4 0 -11 20 -14 45 l-7 45 -124 0 -124 0 -7 -35 c-3 -19 -10 -35 -14 -35
-4 0 -11 -20 -14 -45 -4 -25 -11 -45 -17 -45 -5 0 -9 -9 -9 -20 0 -17 -7 -20
-41 -20 l-41 0 7 32 c4 18 11 35 16 38 4 3 11 25 15 48 4 23 10 42 14 42 4 0
14 29 21 65 7 36 16 65 20 65 4 0 10 18 14 40 4 22 10 40 15 40 4 0 11 20 14
45 4 25 11 45 16 45 5 0 12 20 16 45 3 25 10 45 14 45 5 0 11 19 15 43 4 23
13 45 19 50 6 4 34 6 61 5 46 -3 50 -5 53 -30z m4798 -13 c3 -25 10 -45 14
-45 5 0 11 -18 15 -40 4 -22 10 -40 14 -40 4 0 13 -27 19 -60 7 -33 17 -60 22
-60 5 0 12 -20 16 -45 3 -25 10 -45 15 -45 4 0 11 -20 15 -45 3 -25 10 -45 14
-45 4 0 11 -17 15 -37 4 -21 10 -40 15 -43 4 -3 11 -26 15 -53 l7 -47 -30 0
c-47 0 -61 9 -68 46 -3 19 -9 34 -13 34 -4 0 -13 27 -19 60 l-13 60 -120 0
-119 0 -6 -30 c-4 -16 -10 -30 -15 -30 -4 0 -11 -20 -15 -45 -3 -25 -10 -45
-14 -45 -5 0 -10 -10 -12 -22 -2 -19 -10 -24 -42 -26 l-38 -3 7 48 c4 26 11
50 15 53 5 3 11 22 15 43 4 20 11 37 15 37 4 0 13 32 20 70 7 39 17 70 21 70
4 0 10 18 14 40 4 22 10 40 15 40 4 0 10 18 14 40 3 22 10 40 15 40 5 0 12 18
16 40 4 22 10 40 15 40 4 0 11 20 14 45 l7 45 59 0 59 0 7 -45z m774 -245 l0
-290 140 0 140 0 0 -35 0 -35 -180 0 -180 0 0 325 0 325 40 0 40 0 0 -290z
m1118 258 l-3 -33 -132 -3 -133 -3 0 -104 0 -105 130 0 c125 0 130 -1 130 -21
0 -42 -21 -49 -144 -49 l-116 0 0 -115 0 -115 145 0 145 0 0 -29 c0 -17 -6
-31 -16 -35 -9 -3 -94 -6 -190 -6 l-174 0 0 325 0 325 181 0 180 0 -3 -32z
m612 18 c0 -8 7 -16 15 -20 8 -3 15 -12 15 -21 0 -8 5 -15 10 -15 6 0 10 -6
10 -14 0 -8 6 -21 13 -28 7 -7 20 -28 28 -45 7 -18 17 -33 21 -33 5 0 8 -7 8
-15 0 -9 6 -18 14 -21 8 -3 17 -16 20 -30 4 -13 11 -24 16 -24 6 0 10 -6 10
-13 0 -8 9 -24 20 -37 11 -13 20 -29 20 -35 0 -7 6 -15 14 -18 8 -3 17 -19 21
-36 4 -17 10 -31 15 -31 5 0 11 -13 15 -30 17 -80 25 -12 25 225 l0 255 45 0
45 0 0 -319 c0 -282 -2 -320 -16 -325 -27 -10 -73 -7 -84 7 -40 48 -50 62 -50
74 0 7 -6 16 -14 19 -8 3 -18 18 -21 34 -3 16 -13 31 -21 34 -8 3 -14 12 -14
21 0 8 -4 15 -10 15 -5 0 -12 11 -16 25 -3 14 -10 25 -15 25 -5 0 -9 7 -9 15
0 9 -6 18 -13 21 -8 3 -20 20 -27 39 -8 19 -17 35 -21 35 -4 0 -10 11 -13 25
-4 14 -10 25 -15 25 -5 0 -12 14 -16 30 -4 17 -11 30 -16 30 -5 0 -11 11 -15
25 -17 69 -24 2 -24 -240 l0 -265 -35 0 -35 0 0 325 0 325 50 0 c36 0 50 -4
50 -14z m-9030 -121 c0 -8 4 -15 9 -15 5 0 12 -16 15 -35 4 -19 11 -35 16 -35
5 0 12 -20 16 -45 3 -26 12 -52 19 -59 7 -7 16 -31 20 -54 4 -23 10 -42 15
-42 4 0 11 -20 14 -45 4 -25 11 -45 16 -45 5 0 11 -8 13 -17 3 -11 5 -7 6 10
0 15 5 27 10 27 5 0 12 18 16 40 4 22 10 40 14 40 4 0 13 29 20 65 7 36 17 65
21 65 4 0 11 20 14 45 4 25 11 45 15 45 5 0 12 16 15 36 7 35 7 35 54 32 41
-3 47 -6 44 -23 -9 -54 -15 -75 -22 -75 -4 0 -11 -16 -14 -35 -4 -19 -11 -35
-15 -35 -5 0 -12 -16 -15 -35 -4 -19 -11 -35 -15 -35 -5 0 -12 -20 -15 -45 -4
-25 -11 -45 -16 -45 -5 0 -12 -16 -16 -35 -3 -19 -10 -35 -15 -35 -5 0 -12
-18 -15 -41 -4 -22 -12 -46 -19 -52 -6 -7 -15 -29 -19 -49 -3 -20 -13 -39 -21
-42 -8 -3 -15 -12 -15 -21 0 -8 -4 -15 -10 -15 -5 0 -10 -5 -10 -11 0 -6 -18
-29 -40 -51 -22 -22 -40 -44 -40 -48 0 -5 -13 -11 -30 -15 -16 -4 -30 -11 -30
-16 0 -5 -11 -9 -25 -9 -17 0 -25 6 -25 18 0 9 -3 27 -6 40 -5 18 -2 24 15 29
11 3 21 9 21 13 0 5 10 12 23 16 29 9 62 43 72 74 4 14 12 28 18 32 14 8 12
78 -1 87 -6 3 -16 28 -22 54 -7 26 -16 47 -20 47 -4 0 -11 16 -14 35 -4 19
-11 35 -15 35 -5 0 -11 18 -15 40 -3 22 -10 40 -15 40 -5 0 -12 16 -15 35 -4
19 -11 35 -15 35 -5 0 -12 15 -15 34 -4 19 -10 36 -15 38 -5 2 -12 18 -16 36
l-7 32 51 0 c39 0 51 -4 51 -15z"/>
<path d="M848 944 c-10 -3 -18 -10 -18 -15 0 -5 -6 -9 -13 -9 -19 0 -47 -37
-54 -71 -3 -16 -9 -29 -14 -29 -5 0 -9 -34 -9 -75 0 -43 4 -75 10 -75 6 0 10
-9 10 -20 0 -11 7 -23 15 -26 8 -4 15 -12 15 -20 0 -8 6 -14 14 -14 8 0 16 -6
19 -12 5 -16 144 -18 155 -2 4 6 14 13 24 17 9 3 19 19 23 36 4 17 11 31 16
31 5 0 9 43 9 95 0 57 -4 95 -10 95 -5 0 -10 6 -10 13 0 7 -14 28 -31 47 -27
29 -38 34 -83 36 -28 2 -59 0 -68 -2z"/>
<path d="M4113 1074 c-9 -4 -13 -39 -13 -125 l0 -119 65 0 c36 0 65 4 65 9 0
5 18 11 40 15 31 5 41 11 46 31 3 14 10 25 15 25 5 0 9 23 9 51 0 43 -4 55
-31 81 -28 29 -37 32 -107 35 -43 1 -83 0 -89 -3z"/>
<path d="M6058 1074 c-10 -3 -18 -10 -18 -15 0 -5 -6 -9 -14 -9 -25 0 -66 -49
-78 -94 -7 -25 -16 -46 -20 -46 -4 0 -8 -43 -8 -95 0 -57 4 -95 10 -95 6 0 10
-9 10 -21 0 -48 74 -128 126 -136 19 -3 34 -10 34 -14 0 -5 11 -9 25 -9 14 0
25 5 25 10 0 6 13 10 29 10 16 0 36 7 45 15 8 8 19 15 26 15 6 0 16 12 23 28
6 15 17 33 24 40 7 7 13 24 13 38 0 13 5 24 10 24 6 0 10 40 10 100 0 60 -4
100 -10 100 -5 0 -10 11 -10 23 0 13 -9 35 -20 48 -76 89 -67 84 -144 86 -39
1 -79 -1 -88 -3z"/>
<path d="M7010 971 l0 -111 50 0 c28 0 50 5 50 10 0 6 13 10 29 10 17 0 40 11
57 27 24 22 29 35 29 72 0 72 -27 92 -131 99 l-84 5 0 -112z"/>
<path d="M7010 675 l0 -135 50 0 c28 0 50 4 50 9 0 4 18 11 39 14 22 3 50 15
63 27 19 18 23 31 23 85 0 54 -4 67 -23 85 -13 12 -41 24 -63 27 -21 3 -39 10
-39 14 0 5 -22 9 -50 9 l-50 0 0 -135z"/>
<path d="M11738 1074 c-10 -3 -18 -10 -18 -15 0 -5 -5 -9 -11 -9 -16 0 -56
-45 -65 -72 -3 -13 -12 -26 -18 -30 -18 -12 -15 -259 4 -281 64 -74 91 -98
119 -103 17 -4 31 -10 31 -15 0 -5 14 -9 30 -9 17 0 30 5 30 10 0 6 14 10 30
10 17 0 33 6 36 14 3 8 16 17 29 20 13 3 27 16 31 29 4 12 11 25 16 28 16 10
28 80 28 169 0 122 -10 151 -65 207 -48 47 -49 48 -119 50 -39 1 -79 -1 -88
-3z"/>
<path d="M3261 1038 c0 -10 -5 -18 -10 -18 -5 0 -15 -29 -22 -65 -7 -36 -16
-65 -20 -65 -4 0 -10 -18 -14 -40 -4 -22 -11 -40 -16 -40 -5 0 -9 -11 -9 -25
0 -25 0 -25 96 -25 l96 0 -7 33 c-4 17 -11 34 -15 37 -4 3 -10 23 -14 45 -5
22 -12 43 -18 46 -5 3 -12 25 -15 48 -3 22 -9 41 -14 41 -4 0 -10 10 -12 23
-3 14 -5 16 -6 5z"/>
<path d="M8032 983 c-7 -37 -17 -70 -21 -73 -4 -3 -11 -23 -15 -45 -5 -22 -11
-42 -15 -45 -5 -3 -11 -17 -15 -32 l-6 -28 95 0 c95 0 95 0 95 25 0 14 -4 25
-9 25 -5 0 -12 18 -16 40 -4 22 -10 40 -15 40 -4 0 -11 20 -14 45 -4 25 -11
45 -16 45 -5 0 -10 14 -12 32 -5 55 -23 41 -36 -29z"/>
</g>
</svg>
